<?xml version="1.0" encoding="UTF-8"?>
<!DOCTYPE svg PUBLIC "-//W3C//DTD SVG 1.1//EN" "http://www.w3.org/Graphics/SVG/1.1/DTD/svg11.dtd">
<!-- Creator: CorelDRAW X7 -->
<svg xmlns="http://www.w3.org/2000/svg" xml:space="preserve" width="6.424mm" height="6.2587mm" version="1.1" style="shape-rendering:geometricPrecision; text-rendering:geometricPrecision; image-rendering:optimizeQuality; fill-rule:evenodd; clip-rule:evenodd"
viewBox="0 0 63313 61683"
 xmlns:xlink="http://www.w3.org/1999/xlink">
 <defs>
  <style type="text/css">
   <![CDATA[
    .str0 {stroke:#E2016B;stroke-width:750.999}
    .fil0 {fill:#E2016B}
   ]]>
  </style>
 </defs>
 <g id="Слой_x0020_1">
  <metadata id="CorelCorpID_0Corel-Layer"/>
  <g id="_1838033546688">
   <g>
    <path class="fil0" d="M33405 51481c368,-105 2906,-84 3372,-33l24 8506 -3380 7 -16 -8480zm5171 -33l3343 -18 39 8505 -3373 17 -9 -8504zm-6883 8505l-13651 8 -5 -25438 -338 4c-456,0 -907,-18 -1353,-53 10,10134 -12,23274 -35,25473 -752,68 -1418,-84 -1646,582 -254,738 298,1154 986,1154l44076 0c638,0 1188,-341 1005,-1092 -178,-733 -951,-600 -1634,-627 -125,-1601 -46,-11623 -37,-13988 32,-7770 -91,-15875 4,-23584l3066 -15c1791,21 1087,-1421 812,-2531 -598,-2418 -1603,-6097 -2092,-8423 -149,-711 -344,-1027 -1124,-1027l-26168 0c241,556 456,1131 638,1717l25022 -7c107,233 410,1442 398,1696 -2056,108 -5793,13 -8145,11 -836,-1 -2012,-87 -1782,1065 168,838 1260,639 2103,639 2273,0 6383,-105 8254,14 213,322 387,1241 446,1692 -1553,26 -3137,12 -4692,4 -776,-3 -1552,1 -2327,-4 -713,-4 -1419,199 -1234,1069 153,725 927,658 1637,654 1456,-10 6236,-92 7052,30 135,243 404,1388 389,1667l-26676 -8c-119,600 -269,1188 -448,1764l23142 -7 8 37561 -13659 8c-79,-2678 -7,-5452 -8,-8135 -1,-1956 176,-2105 -1901,-2103l-8094 0c-2120,-2 -1983,53 -1981,2103 0,2680 69,5460 -8,8127z"/>
    <path class="fil0" d="M48799 37161l1 -2833 5122 -2 0 3423 -5118 -4 -5 -584zm-1166 -4488c-601,263 -548,710 -542,1362l0 3848c1,632 -105,1162 433,1469 256,145 7183,201 7572,54 783,-292 540,-1985 538,-3286 -1,-642 -1,-1283 0,-1924 2,-721 79,-1174 -440,-1471 -281,-161 -7135,-237 -7561,-52z"/>
    <path class="fil0" d="M21474 42874l5105 39 -10 3328c-336,109 -4660,108 -5120,17l25 -3384zm-1107 -1661c-904,287 -619,1642 -625,3241 -2,640 3,1282 0,1923 -4,683 -88,1246 409,1513 286,155 7044,219 7573,58 580,-178 562,-694 563,-1330l-3 -3847c13,-2006 -287,-1607 -4138,-1609 -712,-2 -3319,-94 -3779,51z"/>
    <path class="fil0" d="M48799 42913l5104 -39 26 3384c-458,91 -4792,91 -5121,-15l-9 -3330zm-1096 -1693c-616,209 -615,577 -612,1310l1 3847c-1,693 -80,1215 397,1499 297,175 7017,229 7567,80 831,-224 584,-1953 580,-3262 -2,-640 -2,-1282 0,-1923 1,-684 80,-1214 -427,-1494 -311,-171 -7049,-212 -7506,-57z"/>
    <path class="fil0" d="M21467 51464c430,-90 4788,-90 5113,17l-15 3366 -5113 -27 15 -3356zm-1727 -599l0 4007c-14,2079 311,1688 3443,1688 5923,0 5112,867 5107,-4413 -4,-2777 300,-2427 -3743,-2426l-3767 0c-826,0 -1046,321 -1040,1144z"/>
    <path class="fil0" d="M35122 34340c1299,-10 3936,-54 5129,23l4 3361 -5131 -6 0 -1598 -2 -1780zm-1705 817l0 3206c0,1448 1124,1092 3070,1093l4007 0c1741,-1 1463,-470 1467,-2937l-2 -2323c2,-1950 -285,-1574 -3468,-1576 -911,0 -4309,-108 -4672,115 -618,380 -402,1663 -402,2422z"/>
    <path class="fil0" d="M39852 46294l-4694 -28c-94,-622 -31,-2725 -19,-3372l5078 -16c88,725 37,2214 37,3018 0,396 -8,398 -402,398zm-5791 -5087c-586,168 -648,605 -645,1242l1 3848c0,672 -103,1254 380,1563 393,250 7274,174 7562,98 529,-143 605,-607 603,-1259l-4 -3848c22,-2090 -201,-1680 -4108,-1691 -715,-1 -3323,-86 -3789,47z"/>
    <path class="fil0" d="M35122 26022c0,-200 44,-239 244,-239 916,0 4221,-60 4877,38 7,846 71,2613 -27,3365l-5065 -2 -29 -3162zm-1705 -882c0,6684 -600,5774 3391,5776 778,0 4276,51 4594,-59 796,-278 559,-1790 557,-2991l0 -2325c-2,-1784 -589,-1464 -3227,-1465l-4249 0c-758,-1 -1066,299 -1066,1064z"/>
    <path class="fil0" d="M48807 25836c334,-107 4675,-107 5122,-15l-27 3382 -5103 -38 8 -3329zm-1719 -295l-1 4007c-7,830 96,1327 936,1368l4813 0c3332,-3 2802,643 2798,-5535 -1,-1648 -672,-1304 -2880,-1305l-4406 0c-1179,0 -1272,330 -1260,1465z"/>
    <path class="fil0" d="M48808 51481c330,-108 4673,-109 5121,-17l-26 3385 -5104 -41 9 -3327zm-1720 105l4 3446c-1,1635 291,1528 2137,1528l4007 0c2864,-2 2402,369 2398,-5053 -1,-2175 -138,-1784 -3921,-1786l-3527 0c-1250,2 -1110,716 -1098,1865z"/>
    <path class="fil0" d="M21456 37482l1 -3154 5121 -2 0 3423 -5122 0 0 -267zm-1716 -2645c5,741 -67,3771 65,4099 290,725 1537,520 2657,520l4007 0c2078,-1 1825,-38 1821,-3336l0 -2004c5,-648 39,-1325 -649,-1472l-2073 -10c-1786,917 -3752,1529 -5831,1774l3 429z"/>
   </g>
   <g>
    <path class="fil0 str0" d="M29949 16518c-238,2191 -475,3664 -1502,5665 -1621,3157 -4171,5518 -7476,6815 -3843,1508 -8119,1267 -11765,-536 -3136,-1551 -5538,-4249 -6814,-7479 -657,-1663 -1145,-4085 -964,-6116 203,-2286 611,-3899 1502,-5648 846,-1662 1929,-3047 3070,-4075 2702,-2432 6644,-4041 10530,-3706 2245,193 3934,627 5641,1504 3199,1643 5513,4193 6815,7477 619,1562 1176,4146 963,6099zm-15315 -16080c-2345,286 -3758,511 -5978,1695 -1816,969 -3281,2164 -4317,3341 -2316,2630 -4304,6574 -3915,11299 497,6044 4196,10934 9770,13199 5817,2364 12817,543 16842,-4047 2318,-2641 4306,-6561 3919,-11294 -495,-6039 -4199,-10939 -9770,-13200 -1673,-679 -4474,-1248 -6551,-993z"/>
    <path class="fil0 str0" d="M14689 15855c54,186 6756,6421 7681,7253 351,314 790,181 887,-192 108,-413 -354,-718 -534,-878 -1043,-930 -2012,-1927 -3062,-2858 -1051,-931 -2046,-1920 -3089,-2881 -1173,-1080 -874,-567 -882,-2129 -6,-986 -1,-1974 -1,-2959 0,-534 112,-2621 -106,-2904 -239,-309 -778,-245 -889,168 -63,236 -24,1152 -25,1459 -1,987 0,1974 -1,2960 -1,451 -53,2705 21,2961z"/>
   </g>
  </g>
 </g>
</svg>
