<?xml version="1.0" encoding="UTF-8"?>
<!DOCTYPE svg PUBLIC "-//W3C//DTD SVG 1.1//EN" "http://www.w3.org/Graphics/SVG/1.1/DTD/svg11.dtd">
<!-- Creator: CorelDRAW X7 -->
<svg xmlns="http://www.w3.org/2000/svg" xml:space="preserve" width="5.3854mm" height="5.5504mm" version="1.1" style="shape-rendering:geometricPrecision; text-rendering:geometricPrecision; image-rendering:optimizeQuality; fill-rule:evenodd; clip-rule:evenodd"
viewBox="0 0 27984 28841"
 xmlns:xlink="http://www.w3.org/1999/xlink">
 <defs>
  <style type="text/css">
   <![CDATA[
    .str0 {stroke:#E2016B;stroke-width:879.721}
    .fil0 {fill:#E2016B}
   ]]>
  </style>
 </defs>
 <g id="Слой_x0020_1">
  <metadata id="CorelCorpID_0Corel-Layer"/>
  <path class="fil0 str0" d="M10449 6164c489,212 1228,411 1765,591l3526 1157c779,249 1130,370 1847,-16 1060,-572 2050,-1138 3030,-1650 377,-197 1155,-734 1726,-484 537,234 755,990 371,1491 -349,454 -2276,1415 -2907,1774 -487,277 -998,563 -1508,850 -1530,862 -1980,577 -3590,72 -795,-250 -1419,-342 -1154,757 979,4071 494,3862 3093,3466 684,-105 1314,-215 1982,-339 1527,-284 2513,-389 3750,457 493,337 893,694 1331,1026l2693 1939c1379,1019 372,2627 -999,2005 -802,-364 -3129,-2207 -4281,-2715 -373,-164 -3346,502 -3920,625 -296,63 -716,145 -647,526 48,270 416,400 635,514 512,267 1052,536 1548,764 688,316 806,544 1072,1283 203,563 387,1168 572,1756 373,1188 743,2362 1048,3625 110,452 465,1560 130,1921 -147,159 -1224,702 -1664,177 -658,-786 -1373,-3911 -1836,-5162 -259,-697 -516,-770 -1179,-1126 -1010,-543 -2040,-1085 -3059,-1624 -974,-515 -2128,-995 -3038,-1633 -3108,-2174 -3487,-6237 -3791,-6695 -213,-319 -575,-168 -793,45 -543,531 -1878,1849 -2231,2445 -441,744 -692,2803 -881,3747 -131,654 -404,1198 -1165,1142 -784,-57 -1146,-449 -1008,-1269 109,-660 193,-1317 333,-1964 540,-2481 1886,-4234 3520,-5838 421,-414 1872,-1910 2204,-2430l-465 -96c-649,718 -1231,1408 -1896,2063 -1873,1844 -3148,3498 -3786,6169 -128,536 -181,1135 -286,1682 -116,607 -214,1175 188,1618 259,286 871,552 1454,505 1735,-141 1356,-3101 2071,-4916 183,-464 1945,-2345 2343,-2608 153,184 335,1129 404,1361 384,1294 868,2468 1686,3553 1155,1532 2027,2045 3975,3020 791,396 1545,809 2301,1191 414,209 743,409 1135,611 1197,617 1315,441 1731,1763l1064 3313c114,327 165,305 43,646 -191,32 -474,-55 -760,-29 -427,39 -1756,235 -1788,670 -42,587 2017,688 1466,148 -106,-104 -480,-73 -647,-152l1056 -235c544,-30 575,217 996,-99 392,680 679,1029 1710,757 331,-88 656,-207 880,-422 276,-266 240,-531 309,-868 18,-90 6,-54 38,-106 158,87 200,335 342,457 159,138 310,182 392,389 -155,133 -598,292 -271,545 309,122 1089,-421 479,-1010 -293,-281 -240,-103 -466,-540 -146,-284 -352,-195 -611,-354 -130,-439 -222,-955 -341,-1405 -348,-1324 -767,-2643 -1182,-3926 -297,-914 -477,-1779 -1162,-2249 -497,-341 -1175,-582 -1716,-860l-431 -224c-100,-64 -47,-25 -106,-84 391,-156 1518,-334 2016,-427 348,-65 676,-123 1039,-183 374,-63 657,-185 976,0 1019,587 1985,1249 2944,1907 401,275 1015,749 1570,862 755,153 1307,-207 1631,-718 878,-1388 -822,-2308 -1550,-2842 -969,-710 -1842,-1325 -2781,-2072 -985,-783 -2172,-1181 -3709,-910 -706,124 -1387,255 -2093,376 -2208,379 -2320,619 -2565,-459 -72,-319 -153,-644 -237,-984 -119,-486 -426,-1525 -447,-1995 403,23 1229,343 1628,468 1334,417 1998,129 3154,-528 997,-566 3131,-1675 3937,-2226 1012,-692 923,-2041 -52,-2535 -888,-451 -2178,478 -2947,887 -476,254 -910,495 -1333,723 -1504,813 -1285,887 -2979,320 -730,-243 -4145,-1423 -4620,-1497l-256 345z"/>
  <path class="fil0 str0" d="M7371 903c794,-115 1645,211 2133,653 1857,1682 935,4697 -1568,4989 -2572,300 -4089,-2900 -2451,-4680 485,-526 958,-828 1886,-962zm-120 -428c-1936,322 -3102,1881 -2851,3650 236,1663 1787,3105 3662,2846 1664,-230 3085,-1738 2832,-3658 -134,-1011 -596,-1661 -1152,-2125 -578,-482 -1545,-869 -2491,-713z"/>
  <path class="fil0 str0" d="M24104 684c-166,81 -625,1131 -727,1328 -79,155 -506,921 -484,1079 21,148 161,222 307,150 67,-32 1229,-2222 1201,-2409 -21,-141 -163,-213 -297,-148z"/>
  <path class="fil0 str0" d="M21700 466c-205,102 -114,406 -97,625 20,261 26,520 41,781 28,519 -12,1333 382,1157 220,-97 64,-1099 48,-1377 -20,-322 45,-1394 -374,-1186z"/>
  <path class="fil0 str0" d="M19297 1121c-338,169 230,739 553,1167 265,351 684,1085 949,954 282,-139 -34,-461 -133,-592l-842 -1124c-133,-177 -295,-519 -527,-405z"/>
 </g>
</svg>
