<?xml version="1.0" encoding="UTF-8"?>
<!DOCTYPE svg PUBLIC "-//W3C//DTD SVG 1.1//EN" "http://www.w3.org/Graphics/SVG/1.1/DTD/svg11.dtd">
<!-- Creator: CorelDRAW X7 -->
<svg xmlns="http://www.w3.org/2000/svg" xml:space="preserve" width="2.9125mm" height="3.7416mm" version="1.1" style="shape-rendering:geometricPrecision; text-rendering:geometricPrecision; image-rendering:optimizeQuality; fill-rule:evenodd; clip-rule:evenodd"
viewBox="0 0 37652 48370"
 xmlns:xlink="http://www.w3.org/1999/xlink">
 <defs>
  <style type="text/css">
   <![CDATA[
    .str0 {stroke:#E2016B;stroke-width:985.088}
    .fil0 {fill:#E2016B}
   ]]>
  </style>
 </defs>
 <g id="Слой_x0020_1">
  <metadata id="CorelCorpID_0Corel-Layer"/>
  <g id="_1838145285200">
   <path class="fil0 str0" d="M24773 1995l4 8005c4,998 79,1499 670,2074 566,551 1088,608 2073,598l8163 -3c102,880 5,15210 23,16775 30,2787 5,5598 3,8388l-5 6329c-25,2752 491,2195 -4142,2238 -6972,64 -14022,-64 -20970,0 -1081,10 -7952,159 -8357,-135 -420,-304 -289,-1198 -289,-1798 1,-712 -4,-1425 1,-2136l0 -12581c-32,-5613 65,-11243 2,-16852 -7,-748 -59,-10107 33,-10430 189,-660 1009,-501 1670,-502 2237,-3 20159,-98 21121,30zm9821 9208c-1122,149 -2968,17 -4176,29 -4974,49 -4197,699 -4201,-4055 -1,-1362 -28,-2763 5,-4122 343,106 3962,3777 4251,4067l4121 4081zm-34052 34863c338,1998 2334,1779 3491,1774l15709 -1c1445,0 14995,116 15751,-56 673,-152 1187,-614 1440,-1154 317,-675 211,-1598 206,-2392 -40,-6987 41,-13982 0,-20970 -20,-3498 -26,-7026 1,-10523 2,-446 84,-971 -146,-1241l-4590 -4483c-851,-810 -1826,-1837 -2642,-2618 -896,-856 -1692,-1590 -2662,-2599 -287,-297 -1071,-1203 -1411,-1268l-7776 -10c-1428,4 -15056,-104 -15751,55 -696,159 -1187,642 -1437,1154 -307,630 -210,1607 -210,2394l-4 31492c-2,755 -56,9938 31,10446z"/>
   <path class="fil0 str0" d="M16441 11140c237,-89 3168,-67 3397,4 299,998 -361,2607 442,3387 907,883 3292,-100 3444,572l27 2729c-11,250 32,206 -101,344 -462,318 -2610,-335 -3390,435 -765,756 -126,2492 -425,3404 -274,81 -3229,96 -3364,-16 -205,-175 -103,-1973 -101,-2229 5,-746 -283,-1260 -899,-1464 -382,-126 -1753,-72 -2256,-70 -856,1 -718,266 -720,-1624 -2,-1810 -141,-1727 597,-1712 464,11 1962,52 2323,-49 1656,-463 583,-2974 1026,-3711zm-1296 8268c301,515 -167,2393 245,3116 510,893 1484,671 2688,672 1144,0 2231,220 2752,-613 449,-717 16,-2297 243,-3159 355,-128 1889,-42 2417,-48 1855,-22 1389,-1952 1404,-3616 7,-941 -39,-1493 -708,-1847 -491,-260 -1693,-167 -2340,-159 -115,1 -526,19 -611,2 -268,-50 -209,-101 -208,-421 14,-3222 202,-3419 -2888,-3383 -2057,24 -2927,-298 -2917,2040 11,2095 121,1764 -730,1760 -630,-3 -1935,-94 -2412,149 -652,331 -742,877 -732,1738 9,792 -57,1780 9,2542 162,1874 2785,925 3788,1227z"/>
   <polygon class="fil0 str0" points="6633,27665 30988,27670 31008,26212 6680,26212 "/>
   <polygon class="fil0 str0" points="6646,32565 31015,32545 30998,31132 6633,31144 "/>
   <polygon class="fil0 str0" points="6645,37459 22158,37450 22127,36022 6642,36033 "/>
   <g>
    <path class="fil0 str0" d="M28215 39649c245,0 460,-31 642,-93 184,-62 336,-150 458,-264 120,-115 210,-254 270,-419 59,-164 89,-347 89,-549 0,-193 -30,-367 -89,-524 -60,-156 -150,-289 -270,-398 -119,-110 -270,-194 -453,-252 -182,-59 -398,-86 -647,-86l-1002 0 0 2585 1002 0zm0 -3622c481,0 898,55 1250,169 353,113 644,272 872,473 229,203 400,446 511,728 112,283 167,592 167,927 0,348 -58,667 -175,958 -116,291 -291,542 -523,751 -233,210 -524,372 -874,487 -351,117 -760,176 -1228,176l-1002 0 0 3028 -1341 0 0 -7697 2343 0z"/>
    <rect class="fil0 str0" transform="matrix(2.57051E-014 0.728371 -0.97057 1.92906E-014 28151.4 41330.5)" width="1840" height="3313"/>
   </g>
  </g>
 </g>
</svg>
