<?xml version="1.0" encoding="UTF-8"?>
<!DOCTYPE svg PUBLIC "-//W3C//DTD SVG 1.1//EN" "http://www.w3.org/Graphics/SVG/1.1/DTD/svg11.dtd">
<!-- Creator: CorelDRAW X7 -->
<svg xmlns="http://www.w3.org/2000/svg" xml:space="preserve" width="2.5535mm" height="3.7803mm" version="1.1" style="shape-rendering:geometricPrecision; text-rendering:geometricPrecision; image-rendering:optimizeQuality; fill-rule:evenodd; clip-rule:evenodd"
viewBox="0 0 6203 9184"
 xmlns:xlink="http://www.w3.org/1999/xlink">
 <defs>
  <style type="text/css">
   <![CDATA[
    .fil0 {fill:#E2016B}
   ]]>
  </style>
 </defs>
 <g id="Слой_x0020_1">
  <metadata id="CorelCorpID_0Corel-Layer"/>
  <g id="_1837834257536">
   <path class="fil0" d="M3943 2209c216,130 73,569 -255,500 -332,-69 -285,-527 -38,-560l-48 241 291 58 50 -239zm66 -322l96 -458 1099 225c114,246 245,509 364,741l277 563c74,147 47,143 -5,395l-1134 5508c-523,-91 -1276,-263 -1826,-374l-2555 -526c97,-565 291,-1423 413,-2017l754 -3668c33,-164 87,-162 276,-328 313,-273 624,-520 942,-807l1099 226 -85 423c-12,59 -19,39 -83,49 -35,5 -66,12 -98,23 -541,179 -522,1006 69,1140 516,117 875,-423 680,-827 -79,-163 -126,-180 -283,-288zm157 -754c31,-184 76,-370 112,-554 84,-423 378,-293 445,-142 48,107 -91,661 -122,787l-435 -91zm-296 -61c-353,-58 -761,-159 -1124,-230 -143,-28 -180,30 -262,101 -116,99 -1209,1018 -1237,1074 -39,77 -1049,5068 -1091,5270 -48,240 -117,509 -153,746 -33,220 235,215 566,284l4151 854c135,29 219,16 253,-116 79,-299 237,-1147 310,-1506l772 -3756c27,-133 154,-663 148,-757 -4,-66 -400,-835 -474,-987 -89,-183 -167,-338 -243,-497 -116,-241 -156,-162 -589,-269 35,-205 157,-639 142,-815 -40,-485 -718,-656 -973,-208 -87,152 -145,605 -196,812z"/>
   <path class="fil0" d="M1148 6914l875 179 -89 436 -875 -178 89 -437zm-290 -77l-105 512c-58,283 68,257 434,333l731 150c309,64 273,-65 375,-562 97,-468 125,-404 -573,-545l-556 -114c-239,-50 -258,-6 -306,226z"/>
   <polygon class="fil0" points="3194,7332 4654,7633 4716,7342 3255,7041 "/>
   <polygon class="fil0" points="3045,8064 4505,8363 4565,8072 3103,7772 "/>
   <polygon class="fil0" points="2459,7942 2751,8004 2811,7712 2520,7652 "/>
   <polygon class="fil0" points="2609,7211 2901,7273 2961,6982 2671,6921 "/>
   <g>
    <path class="fil0" d="M3403 5064c101,21 194,26 277,15 83,-11 156,-35 219,-73 63,-37 115,-86 155,-148 41,-61 70,-132 86,-213 34,-167 10,-308 -74,-424 -84,-115 -231,-194 -441,-237l-421 -87 -222 1081 421 86zm280 -1361c166,35 306,83 421,147 115,63 205,139 271,227 66,87 109,185 128,293 19,109 16,224 -9,348 -26,122 -70,229 -134,322 -63,92 -143,167 -241,223 -97,57 -211,92 -341,108 -130,16 -274,8 -433,-25l-422 -86 -201 982 -354 -73 540 -2625 775 159z"/>
    <polygon class="fil0" points="3197,5611 3124,5963 2107,5754 2180,5402 "/>
   </g>
  </g>
 </g>
</svg>
