<?xml version="1.0" encoding="UTF-8"?>
<!DOCTYPE svg PUBLIC "-//W3C//DTD SVG 1.1//EN" "http://www.w3.org/Graphics/SVG/1.1/DTD/svg11.dtd">
<!-- Creator: CorelDRAW X7 -->
<svg xmlns="http://www.w3.org/2000/svg" xml:space="preserve" width="5.3055mm" height="3.386mm" version="1.1" style="shape-rendering:geometricPrecision; text-rendering:geometricPrecision; image-rendering:optimizeQuality; fill-rule:evenodd; clip-rule:evenodd"
viewBox="0 0 123543 78846"
 xmlns:xlink="http://www.w3.org/1999/xlink">
 <defs>
  <style type="text/css">
   <![CDATA[
    .str0 {stroke:#E2016B;stroke-width:1774.38}
    .fil0 {fill:#E2016B}
   ]]>
  </style>
 </defs>
 <g id="Слой_x0020_1">
  <metadata id="CorelCorpID_0Corel-Layer"/>
  <g id="_1838145277648">
   <path class="fil0 str0" d="M67315 42243l52761 0c237,1972 65,23570 72,27535 7,3461 -158,5601 -3828,5657 -12325,181 -24809,-10 -37150,-7 -12309,2 -24632,55 -36941,7 -3665,-17 -4038,-1856 -4038,-5237l0 -1272c-810,233 -1630,438 -2456,624 -61,2608 -126,4441 1467,6301 1769,2068 3658,2022 7118,2022 1935,-3 71339,239 73402,-80 2277,-349 4198,-2226 4706,-4440 391,-1712 165,-40953 153,-45724 -6,-3393 441,-5528 -1436,-7757 -1749,-2077 -3849,-2023 -7130,-2030 -1051,0 -24530,-87 -44632,-91 160,810 300,1630 414,2456 15162,24 31285,94 34619,101 3651,7 9335,-350 12735,30 1723,193 2871,1509 2999,3134 117,1500 110,4825 -27,6308l-50019 61c-62,836 -151,1665 -263,2489l50307 0 -12 7452 -51957 0c-263,831 -552,1653 -864,2461z"/>
   <path class="fil0 str0" d="M44949 70617l4799 0c2242,4 2156,-1831 1080,-2315 -612,-275 -4473,-140 -5672,-137 -2694,2 -2606,2449 -207,2452z"/>
   <path class="fil0 str0" d="M59763 70619l2920 -5c2292,0 3337,-2459 -833,-2454 -1898,5 -6721,-554 -5412,1809 508,918 2161,655 3325,650z"/>
   <g>
    <path class="fil0" d="M8478 46167c764,-68 4085,1094 5116,1285 1949,359 3328,-2643 180,-3470 -1721,-451 -3316,-891 -5037,-1336 -880,-226 -1642,-438 -2515,-671 -2764,-740 -2899,-249 -3628,2431l-2028 7547c-568,2429 2615,3414 3358,713 260,-950 1062,-4467 1422,-5030 6011,9079 16291,12893 24213,13101 15741,407 29070,-11180 31082,-26633 182,-1399 422,-5425 54,-6950 -312,-1295 -2003,-1786 -2934,-694 -634,743 -289,2231 -271,3360 268,17131 -15142,30737 -33266,26867 -2598,-556 -5577,-1770 -8350,-3514 -2152,-1353 -5915,-4443 -7396,-7006z"/>
    <path class="fil0" d="M52410 14607c-1086,5 -3766,-994 -4949,-1255 -2272,-501 -3306,2704 -535,3388 1718,424 3323,883 5036,1339 883,235 1635,433 2515,673 713,193 1758,722 2727,70 824,-554 1460,-3947 1737,-4976 459,-1719 894,-3314 1358,-5030 633,-2343 -2592,-3467 -3349,-713 -261,948 -1064,4471 -1425,5033 -7836,-11261 -21933,-15555 -33790,-11813 -15152,4783 -22021,18069 -21726,29934 38,1429 -21,3968 2059,3639 2992,-468 -224,-4890 2717,-13056 2080,-5775 5621,-11161 12703,-15155 6687,-3770 13745,-3774 19250,-2591 5230,1122 12605,5446 15672,10513z"/>
   </g>
   <g>
    <path class="fil0" d="M32519 30931c1162,0 2193,-152 3085,-461 887,-310 1639,-743 2247,-1297 610,-552 1067,-1211 1376,-1984 308,-771 461,-1619 461,-2546 0,-1918 -589,-3418 -1774,-4498 -1183,-1081 -2985,-1621 -5395,-1621l-4839 0 0 12407 4839 0zm0 -15625c1907,0 3565,216 4976,659 1409,442 2573,1073 3497,1888 925,813 1619,1793 2078,2941 454,1151 677,2434 677,3849 0,1405 -244,2688 -736,3850 -489,1164 -1206,2165 -2151,3008 -946,841 -2117,1493 -3512,1961 -1395,470 -3008,710 -4829,710l-4839 0 0 11270 -4059 0 0 -30136 8898 0z"/>
    <polygon class="fil0" points="31483,37423 31483,41470 19809,41470 19809,37423 "/>
   </g>
  </g>
 </g>
</svg>
