<?xml version="1.0" encoding="UTF-8"?>
<!DOCTYPE svg PUBLIC "-//W3C//DTD SVG 1.1//EN" "http://www.w3.org/Graphics/SVG/1.1/DTD/svg11.dtd">
<!-- Creator: CorelDRAW X7 -->
<svg xmlns="http://www.w3.org/2000/svg" xml:space="preserve" width="5.9389mm" height="4.994mm" version="1.1" style="shape-rendering:geometricPrecision; text-rendering:geometricPrecision; image-rendering:optimizeQuality; fill-rule:evenodd; clip-rule:evenodd"
viewBox="0 0 512221 430725"
 xmlns:xlink="http://www.w3.org/1999/xlink">
 <defs>
  <style type="text/css">
   <![CDATA[
    .fil0 {fill:#E2016B}
   ]]>
  </style>
 </defs>
 <g id="Слой_x0020_1">
  <metadata id="CorelCorpID_0Corel-Layer"/>
  <g id="_1838419126592">
   <path class="fil0" d="M389464 402013c-345,-1440 -940,-51456 345,-52870 2061,-2269 13722,-751 17569,-725l53620 -26c10833,-26 10333,-2311 10221,7987 -138,11954 -104,24072 -18,36034 113,16103 -2397,17354 -18207,17259 -11997,-61 -24011,26 -36017,17 -11428,-17 -25176,2130 -27513,-7676zm-348272 -53388l81609 -207 129 51206c-492,9108 -6477,10186 -14878,10177l-51231 26c-8272,26 -14896,-888 -15715,-9453 -707,-7434 -34,-17801 -78,-25572 -34,-8030 -534,-18397 164,-26177zm449441 -34646c-3829,11109 -11514,13895 -25633,13921 -91984,189 -186409,-923 -277720,-18l-118454 -17c-10367,104 -29902,1734 -37785,-2596 -10540,-5779 -10350,-13627 -10445,-28902l9 -79236c-43,-14223 388,-23080 7072,-33120 15335,-23045 36259,-20078 59563,-20001 26410,95 52819,-52 79228,0l237701 0c13024,0 26228,259 39217,-43 12886,-302 23055,2777 31162,9186 19544,15472 17069,32498 17129,62392 17,12066 1225,71853 -1044,78434zm-45703 -170530l-368039 94c621,-4286 38311,-108017 40985,-112718 5916,-10384 13368,-10246 27789,-10255l230499 26c30446,112 28091,3433 39442,36992 4140,12213 28263,79935 29324,85861zm-424420 199639c440,16749 -2648,57648 3010,69749 10315,22037 34267,17431 55717,17440 25089,0 47824,4321 59209,-13886 9574,-15310 2993,-47377 5115,-67740 8599,-1095 22502,-198 31713,-250l161673 -9c4770,-8 29480,-1147 31257,707 1940,2019 664,27186 655,32102 0,24486 -724,37113 17828,46307 9677,4787 48273,2812 62306,2794 12333,-8 18741,1010 27901,-4415 6374,-3778 12101,-10540 13972,-18630 2674,-11601 630,-49619 845,-64169 21364,-15585 20502,-24633 20502,-56320 0,-25884 -9,-51758 0,-77641 0,-22709 -6762,-39304 -24883,-52741 -25081,-18595 -12178,9323 -31351,-46307 -6823,-19811 -12791,-37604 -19691,-57114 -7624,-21536 -10065,-39088 -29126,-48584 -10583,-5269 -20700,-4329 -34206,-4278l-232095 -25c-41589,-285 -43728,24831 -56458,60537l-27669 78788c-1388,4175 -672,4425 -4312,5451 -12679,3580 -16888,4011 -27099,11178 -17285,12127 -25332,30403 -25314,52301 17,25875 0,51749 0,77633 0,32912 -363,42235 20501,57122z"/>
   <path class="fil0" d="M163941 225566l83368 0c28376,0 74760,-915 100945,69 26,8814 518,33499 -328,40847l-30186 35c-50206,-225 -103999,715 -153540,-44l-224 -26926 -35 -13981zm-20372 53198c2432,10996 17862,8211 30101,8142 12808,-69 25616,34 38424,8 25590,-34 51240,-172 76830,-8 11186,69 69999,1811 75269,-1751 7357,-4985 4614,-22796 4692,-33603 60,-8788 1043,-30816 -259,-38182 -2035,-11488 -18190,-8357 -30083,-8426 -12800,-69 -25616,51 -38415,8l-115246 0c-8185,9 -31618,-1725 -36862,1725 -7426,4899 -4744,23089 -4658,33663 61,7840 -1078,32593 207,38424z"/>
   <path class="fil0" d="M450088 250750c-6201,26151 -46057,16827 -39709,-9867 5856,-24658 46203,-17508 39709,9867zm-60728 0c2821,20527 21312,38967 45945,35880 21027,-2631 38242,-21683 35689,-45264 -2285,-21044 -21406,-39113 -45746,-36069 -20354,2545 -39131,21769 -35888,45453z"/>
   <path class="fil0" d="M61737 249146c-3976,-27875 37052,-31834 40476,-6218 3657,27314 -36794,32067 -40476,6218zm60779 2406c3597,-23494 -13955,-43314 -34862,-46168 -23614,-3217 -43771,14196 -46367,34352 -3105,24064 13619,43953 34965,46790 24598,3278 43081,-14162 46264,-34974z"/>
  </g>
 </g>
</svg>
