<?xml version="1.0" encoding="utf-8"?>
<svg viewBox="0 0 300 300.004" width="300" height="300" xmlns="http://www.w3.org/2000/svg">
  <path d="M 141.036 299.764 L 141.036 209.473 L 141.388 209.589 L 287.733 209.589 C 264.641 262.727 211.486 300.004 150.056 300.004 C 147.053 300.004 144.043 299.892 141.036 299.764 Z M 0 149.667 L 0 150.478 C 0.199 223.988 53.747 285.236 123.841 297.71 L 123.841 2.402 C 53.747 14.768 0.199 76.127 0 149.667 Z M 294.595 190.211 L 141.036 190.103 L 141.156 189.979 L 141.036 101.614 L 291.937 101.614 C 297.229 116.763 300 133.109 300 150.072 C 300 163.888 298.074 177.369 294.595 190.211 Z M 283.89 82.493 L 142.361 82.493 L 141.036 82.493 L 141.036 0.36 C 144.043 0.112 147.053 0 150.056 0 C 208.371 0 259.108 33.666 283.89 82.493 Z M 28.373 203.314 L 41.236 203.314 L 45.208 191.06 L 49.175 203.314 L 62.038 203.314 L 51.693 211.03 L 55.669 223.289 L 45.208 215.718 L 34.854 223.289 L 38.714 211.03 L 28.373 203.314 Z M 13.46 142.842 L 25.971 142.842 L 29.822 130.935 L 33.657 142.842 L 46.177 142.842 L 36.068 150.3 L 39.911 162.19 L 29.822 154.872 L 19.713 162.19 L 23.565 150.3 L 13.46 142.842 Z M 30.891 79.486 L 43.655 79.486 L 47.49 66.138 L 51.573 79.486 L 64.449 79.486 L 53.987 87.061 L 57.951 99.328 L 47.614 91.745 L 37.277 99.328 L 41.236 87.061 L 30.891 79.486 Z M 76.467 35.956 L 88.978 35.956 L 92.822 24.053 L 96.673 35.956 L 109.176 35.956 L 99.075 43.402 L 102.914 55.197 L 92.822 47.854 L 82.717 55.197 L 86.572 43.402 L 76.467 35.956 Z M 75.746 246.493 L 88.502 246.493 L 92.465 234.243 L 96.42 246.493 L 109.064 246.493 L 98.831 253.943 L 102.678 266.214 L 92.465 258.652 L 82.116 266.214 L 86.1 253.943 L 75.746 246.493 Z" style="fill:#1C1475;fill-rule:nonzero"/>
</svg>
