<?xml version="1.0" encoding="UTF-8"?>
<!DOCTYPE svg PUBLIC "-//W3C//DTD SVG 1.1//EN" "http://www.w3.org/Graphics/SVG/1.1/DTD/svg11.dtd">
<!-- Creator: CorelDRAW X7 -->
<svg xmlns="http://www.w3.org/2000/svg" xml:space="preserve" width="18.4958mm" height="5.019mm" version="1.1" style="shape-rendering:geometricPrecision; text-rendering:geometricPrecision; image-rendering:optimizeQuality; fill-rule:evenodd; clip-rule:evenodd"
viewBox="0 0 266953 72440"
 xmlns:xlink="http://www.w3.org/1999/xlink">
 <defs>
  <style type="text/css">
   <![CDATA[
    .fil0 {fill:#FFFFFF;fill-rule:nonzero}
   ]]>
  </style>
 </defs>
 <g id="Слой_x0020_1">
  <metadata id="CorelCorpID_0Corel-Layer"/>
  <g id="_2453710336928">
   <path class="fil0" d="M34055 72382l0 -21802 85 28 35337 0c-5576,12831 -18411,21832 -33244,21832 -725,0 -1452,-27 -2178,-58zm-34055 -36243l0 196c48,17750 12978,32539 29903,35551l0 -71306c-16925,2986 -29855,17802 -29903,35559zm71134 9790l-37079 -26 29 -30 -29 -21337 36437 0c1278,3658 1947,7605 1947,11701 0,3336 -465,6591 -1305,9692zm-2585 -26010l-34174 0 -320 0 0 -19832c726,-60 1453,-87 2178,-87 14081,0 26332,8129 32316,19919zm-61698 29174l3106 0 959 -2959 958 2959 3106 0 -2498 1863 960 2960 -2526 -1828 -2500 1828 932 -2960 -2497 -1863zm-3601 -14602l3021 0 930 -2875 926 2875 3023 0 -2441 1801 928 2871 -2436 -1767 -2441 1767 930 -2871 -2440 -1801zm4209 -15298l3082 0 926 -3223 986 3223 3109 0 -2526 1829 957 2962 -2496 -1831 -2496 1831 956 -2962 -2498 -1829zm11005 -10511l3021 0 928 -2874 930 2874 3019 0 -2439 1798 927 2848 -2437 -1773 -2440 1773 931 -2848 -2440 -1798zm-174 50837l3080 0 957 -2958 955 2958 3053 0 -2471 1799 929 2963 -2466 -1826 -2499 1826 962 -2963 -2500 -1799z"/>
   <g>
    <path class="fil0" d="M91461 54508l1051 365c-163,663 -433,1145 -817,1450 -381,305 -854,457 -1414,457 -699,0 -1269,-242 -1706,-729 -501,-561 -751,-1320 -751,-2272 0,-1010 253,-1798 757,-2367 440,-493 1027,-742 1768,-742 604,0 1108,185 1517,555 288,264 502,655 633,1175l-1074 281c-70,-320 -205,-566 -410,-738 -206,-170 -446,-255 -723,-255 -398,0 -720,157 -972,469 -253,310 -377,826 -377,1544 0,744 121,1273 368,1587 245,316 563,473 955,473 286,0 533,-101 744,-300 208,-199 359,-517 451,-953zm8494 2172l0 -4910 -1599 0 0 -1000 4278 0 0 1000 -1593 0 0 4910 -1086 0zm8680 0l0 -5910 1748 0c651,0 1077,29 1278,85 319,91 583,286 791,583 206,299 311,683 311,1154 0,428 -88,786 -268,1073 -179,290 -406,495 -674,609 -267,117 -730,177 -1387,177l-713 0 0 2229 -1086 0zm1086 -4910l0 1677 600 0c403,0 676,-24 822,-76 142,-52 262,-143 356,-276 91,-134 137,-296 137,-489 0,-196 -46,-364 -143,-497 -95,-132 -212,-225 -353,-271 -140,-45 -436,-68 -891,-68l-528 0zm14087 4910l-1181 0 -471 -1342 -2150 0 -446 1342 -1153 0 2095 -5910 1152 0 2154 5910zm-2002 -2338l-739 -2192 -732 2192 1471 0zm7335 2338l1840 -3084 -1671 -2826 1271 0 1083 1899 1055 -1899 1258 0 -1670 2871 1842 3039 -1313 0 -1196 -2043 -1196 2043 -1303 0zm10641 -2918c0,-704 117,-1283 348,-1739 232,-456 534,-795 908,-1018 372,-222 824,-335 1357,-335 770,0 1397,265 1883,794 487,529 728,1282 728,2261 0,990 -257,1762 -770,2319 -450,491 -1063,736 -1838,736 -778,0 -1393,-242 -1844,-729 -515,-554 -772,-1318 -772,-2289zm1120 -40c0,679 143,1189 432,1528 286,339 641,511 1064,511 430,0 782,-169 1063,-507 282,-336 422,-853 422,-1553 0,-685 -137,-1190 -412,-1521 -272,-329 -630,-492 -1073,-492 -442,0 -802,167 -1079,497 -278,330 -417,842 -417,1537zm10249 -2952l2157 0c587,0 1000,51 1239,146 240,95 443,267 607,511 163,245 243,521 243,831 0,284 -69,541 -210,771 -140,232 -322,401 -546,511 319,104 569,278 751,524 180,248 271,550 271,903 0,430 -114,794 -346,1090 -231,299 -503,481 -813,550 -219,50 -726,73 -1520,73l-1833 0 0 -5910zm1084 984l0 1366 719 0c429,0 694,-6 795,-20 185,-26 331,-96 438,-211 103,-114 155,-269 155,-466 0,-175 -41,-316 -127,-426 -86,-110 -190,-178 -310,-204 -123,-26 -468,-39 -1042,-39l-628 0zm0 2349l0 1583 1009 0c443,0 726,-22 850,-64 126,-41 230,-124 315,-248 86,-121 128,-275 128,-463 0,-195 -45,-354 -135,-476 -91,-126 -214,-211 -364,-262 -152,-46 -458,-70 -924,-70l-879 0zm9429 -341c0,-704 119,-1283 350,-1739 231,-456 532,-795 907,-1018 371,-222 825,-335 1357,-335 769,0 1396,265 1882,794 488,529 729,1282 729,2261 0,990 -257,1762 -769,2319 -450,491 -1064,736 -1839,736 -778,0 -1394,-242 -1843,-729 -515,-554 -774,-1318 -774,-2289zm1122 -40c0,679 143,1189 431,1528 286,339 640,511 1064,511 429,0 782,-169 1064,-507 280,-336 421,-853 421,-1553 0,-685 -138,-1190 -411,-1521 -273,-329 -632,-492 -1074,-492 -442,0 -801,167 -1080,497 -277,330 -415,842 -415,1537zm10253 2958l0 -5910 3995 0 0 1000 -2911 0 0 1311 2705 0 0 994 -2705 0 0 1611 3009 0 0 994 -4093 0zm12186 -2918c0,-704 117,-1283 349,-1739 231,-456 533,-795 907,-1018 372,-222 825,-335 1358,-335 769,0 1396,265 1882,794 486,529 729,1282 729,2261 0,990 -259,1762 -769,2319 -451,491 -1064,736 -1839,736 -778,0 -1394,-242 -1845,-729 -514,-554 -772,-1318 -772,-2289zm1121 -40c0,679 143,1189 432,1528 286,339 639,511 1064,511 428,0 782,-169 1063,-507 280,-336 420,-853 420,-1553 0,-685 -137,-1190 -409,-1521 -275,-329 -633,-492 -1074,-492 -443,0 -801,167 -1080,497 -278,330 -416,842 -416,1537zm10273 2958l0 -5910 4025 0 0 996 -2942 0 0 1354 1539 0c583,0 1041,164 1371,489 331,329 497,762 497,1298 0,467 -140,880 -422,1238 -283,358 -763,535 -1446,535l-2622 0zm1083 -2560l0 1562 1146 0c301,0 516,-21 649,-57 132,-36 246,-119 349,-252 101,-132 150,-285 150,-456 0,-533 -367,-797 -1103,-797l-1191 0zm16050 1562l474 0 0 2283 -890 0 0 -1285 -6007 0 0 -5910 1084 0 0 4912 1569 0 0 -4912 1081 0 0 4912 1605 0 0 -4912 1084 0 0 4912zm6528 998l0 -5910 3994 0 0 1000 -2910 0 0 1311 2705 0 0 994 -2705 0 0 1611 3008 0 0 994 -4092 0zm13761 -2172l1051 365c-164,663 -435,1145 -817,1450 -381,305 -855,457 -1415,457 -700,0 -1268,-242 -1704,-729 -503,-561 -752,-1320 -752,-2272 0,-1010 251,-1798 756,-2367 440,-493 1028,-742 1768,-742 603,0 1109,185 1517,555 289,264 501,655 634,1175l-1074 281c-71,-320 -205,-566 -412,-738 -205,-170 -444,-255 -721,-255 -399,0 -720,157 -973,469 -253,310 -378,826 -378,1544 0,744 122,1273 369,1587 246,316 562,473 954,473 286,0 534,-101 745,-300 208,-199 358,-517 452,-953zm8494 2172l0 -4910 -1599 0 0 -1000 4278 0 0 1000 -1595 0 0 4910 -1084 0zm8680 -5910l2156 0c588,0 1000,51 1240,146 240,95 443,267 606,511 163,245 244,521 244,831 0,284 -69,541 -209,771 -142,232 -324,401 -547,511 320,104 570,278 752,524 179,248 270,550 270,903 0,430 -114,794 -347,1090 -231,299 -501,481 -812,550 -220,50 -726,73 -1520,73l-1833 0 0 -5910zm1084 984l0 1366 719 0c428,0 694,-6 795,-20 185,-26 330,-96 437,-211 104,-114 156,-269 156,-466 0,-175 -42,-316 -127,-426 -87,-110 -191,-178 -310,-204 -123,-26 -468,-39 -1042,-39l-628 0zm0 2349l0 1583 1010 0c442,0 725,-22 850,-64 124,-41 228,-124 315,-248 85,-121 127,-275 127,-463 0,-195 -45,-354 -136,-476 -91,-126 -213,-211 -364,-262 -151,-46 -457,-70 -923,-70l-879 0zm9429 -341c0,-704 118,-1283 349,-1739 231,-456 533,-795 908,-1018 371,-222 824,-335 1357,-335 771,0 1395,265 1882,794 488,529 729,1282 729,2261 0,990 -257,1762 -770,2319 -450,491 -1063,736 -1838,736 -778,0 -1393,-242 -1843,-729 -516,-554 -774,-1318 -774,-2289zm1121 -40c0,679 143,1189 432,1528 286,339 639,511 1064,511 428,0 782,-169 1063,-507 282,-336 420,-853 420,-1553 0,-685 -137,-1190 -409,-1521 -273,-329 -633,-492 -1074,-492 -442,0 -801,167 -1080,497 -277,330 -416,842 -416,1537z"/>
    <path class="fil0" d="M87824 18887l19472 0 0 4443 -14169 0 0 5822 13185 0 0 4424 -13185 0 0 7150 14673 0 0 4424 -19976 0 0 -26263zm29608 14814l0 7025 4911 0c1908,0 3122,-56 3635,-165 788,-141 1431,-492 1924,-1044 498,-556 745,-1301 745,-2233 0,-788 -189,-1455 -574,-2008 -380,-545 -936,-945 -1656,-1198 -723,-251 -2289,-377 -4702,-377l-4283 0zm0 -10445l0 6077 3475 0c2066,0 3352,-31 3853,-91 909,-106 1622,-423 2141,-943 519,-520 779,-1201 779,-2049 0,-813 -224,-1471 -673,-1981 -447,-508 -1112,-814 -1997,-922 -525,-58 -2037,-91 -4529,-91l-3049 0zm-5299 -4369l10494 0c2080,0 3628,87 4650,260 1021,172 1934,534 2740,1083 807,549 1478,1281 2018,2195 536,915 805,1937 805,3074 0,1228 -332,2356 -993,3385 -665,1027 -1563,1797 -2699,2310 1601,468 2832,1260 3692,2382 857,1124 1290,2443 1290,3959 0,1195 -277,2357 -834,3484 -556,1130 -1312,2034 -2275,2706 -962,674 -2144,1089 -3556,1244 -886,97 -3017,156 -6395,181l-8937 0 0 -26263zm31595 4441l0 7455 2901 0c2090,0 3489,-139 4192,-413 707,-277 1260,-703 1660,-1289 399,-587 598,-1264 598,-2046 0,-954 -278,-1742 -844,-2362 -557,-622 -1273,-1008 -2132,-1164 -629,-120 -1902,-181 -3813,-181l-2562 0zm-5301 21822l0 -26263 8508 0c3225,0 5326,133 6306,393 1504,395 2768,1251 3780,2572 1015,1319 1523,3025 1523,5113 0,1613 -292,2971 -878,4066 -587,1100 -1329,1965 -2231,2590 -902,627 -1820,1042 -2748,1247 -1269,251 -3100,375 -5502,375l-3457 0 0 9907 -5301 0zm29382 -13149c0,2975 685,5228 2061,6762 1368,1536 3116,2302 5229,2302 2113,0 3846,-762 5203,-2283 1357,-1524 2032,-3806 2032,-6853 0,-3012 -655,-5255 -1974,-6736 -1322,-1481 -3078,-2223 -5261,-2223 -2190,0 -3948,751 -5286,2250 -1341,1499 -2004,3757 -2004,6781zm-5468 179c0,-2674 403,-4922 1203,-6736 594,-1336 1413,-2539 2443,-3601 1035,-1065 2168,-1853 3396,-2365 1634,-693 3522,-1038 5658,-1038 3870,0 6970,1199 9295,3601 2319,2399 3483,5736 3483,10014 0,4239 -1155,7557 -3460,9951 -2306,2395 -5386,3591 -9240,3591 -3909,0 -7012,-1191 -9318,-3573 -2305,-2383 -3460,-5664 -3460,-9844zm56373 13170l0 -26261 5300 0 0 10334 10392 0 0 -10334 5303 0 0 26261 -5303 0 0 -11483 -10392 0 0 11483 -5300 0zm43099 -9655l5140 1631c-787,2863 -2100,4995 -3930,6386 -1836,1392 -4161,2084 -6979,2084 -3488,0 -6352,-1190 -8599,-3573 -2247,-2380 -3370,-5639 -3370,-9771 0,-4371 1130,-7767 3390,-10185 2256,-2419 5222,-3628 8901,-3628 3214,0 5824,950 7830,2849 1194,1123 2089,2734 2686,4838l-5249 1253c-312,-1361 -959,-2436 -1943,-3226 -984,-787 -2184,-1182 -3592,-1182 -1947,0 -3528,699 -4740,2097 -1213,1397 -1817,3662 -1817,6789 0,3323 597,5686 1791,7094 1195,1410 2746,2116 4659,2116 1408,0 2622,-449 3637,-1345 1016,-895 1741,-2305 2185,-4227zm-53642 9456l0 -17126 -10590 17126 -5320 0 0 -26264 4926 0 0 17539 10750 -17539 5158 0 0 26264 -4924 0z"/>
   </g>
  </g>
 </g>
</svg>
