<?xml version="1.0" encoding="UTF-8"?>
<!DOCTYPE svg PUBLIC "-//W3C//DTD SVG 1.1//EN" "http://www.w3.org/Graphics/SVG/1.1/DTD/svg11.dtd">
<!-- Creator: CorelDRAW X7 -->
<svg xmlns="http://www.w3.org/2000/svg" xml:space="preserve" width="3.8699mm" height="3.0425mm" version="1.1" style="shape-rendering:geometricPrecision; text-rendering:geometricPrecision; image-rendering:optimizeQuality; fill-rule:evenodd; clip-rule:evenodd"
viewBox="0 0 383767 301716"
 xmlns:xlink="http://www.w3.org/1999/xlink">
 <defs>
  <style type="text/css">
   <![CDATA[
    .fil0 {fill:#D9DADA}
   ]]>
  </style>
 </defs>
 <g id="Слой_x0020_1">
  <metadata id="CorelCorpID_0Corel-Layer"/>
  <g id="_1838035296384">
   <path class="fil0" d="M159917 132844c4225,3868 21142,32616 26854,38854 5722,6258 17791,2003 26914,238 5108,-982 24574,-5137 28263,-4730 5117,14022 15024,36583 21063,51398 1984,4879 20329,48473 21063,52251 -3768,-694 -11186,-4224 -14855,-5781l-213259 -89399c2687,-2301 20756,-8906 25466,-10849l52410 -21480c4076,-1676 8578,-3530 12773,-5246 3728,-1527 9649,-4383 13308,-5256zm193009 13517c-744,3798 -4403,11444 -5950,15073l-18167 43465c-6347,15550 -17860,44070 -24257,57874 -1933,-1993 -4631,-9867 -5781,-12703l-25506 -62158c-2816,-6922 -8409,-18406 -10085,-25099l89746 -16452zm-305217 9153c566,-3223 4403,-11137 5970,-14954 6605,-16046 41105,-99505 42781,-101329 3163,3589 50248,73284 50932,75317 -2390,1864 -43425,18197 -49990,20875 -8102,3292 -16610,6773 -24861,10174 -4939,2043 -20855,9302 -24832,9917zm151329 -2767l-20339 -30385c-3808,-5523 -60363,-87554 -61434,-91481 4869,1051 109967,45686 114003,47362l111196 46549c1210,883 635,367 1487,1597 -4016,714 -140569,26438 -144913,26358zm-105206 -152281c-6238,2132 -6575,4701 -9282,11424 -2013,4988 -4116,9937 -6228,14925 -5573,13219 -60769,143425 -61136,147541 -665,7348 4036,9966 8746,11900 73662,30226 147382,61900 221262,92513l44179 18495c14677,6356 18713,7566 24950,-7626l55385 -132468c2142,-5147 11623,-26091 12000,-29958 1021,-10611 -11355,-12753 -23741,-18108 -10095,-4374 -19506,-8043 -29849,-12466 -19665,-8419 -39201,-16243 -58826,-24603l-161940 -67731c-4731,-1974 -10413,-5583 -15520,-3838z"/>
   <path class="fil0" d="M238 292206c1091,6287 5613,8806 12812,8826l106982 0c5940,40 15500,545 21053,-70 12128,-1338 14687,-21152 -3530,-21102l-106962 10c-9401,0 -33161,-3947 -30355,12336z"/>
   <path class="fil0" d="M268 246887c1735,9391 10730,8617 20656,8607 9471,-20 18941,20 28402,0 9669,-20 19337,-10 29006,0 5425,10 8638,437 12079,-2578 5831,-5097 4571,-14885 -3233,-17910 -3828,-1477 -36513,-664 -42077,-674 -9669,0 -19347,20 -29016,0 -5077,-10 -8757,-159 -12039,2330 -2360,1785 -4621,5653 -3778,10225z"/>
  </g>
 </g>
</svg>
