<?xml version="1.0" encoding="UTF-8"?>
<!DOCTYPE svg PUBLIC "-//W3C//DTD SVG 1.1//EN" "http://www.w3.org/Graphics/SVG/1.1/DTD/svg11.dtd">
<!-- Creator: CorelDRAW X7 -->
<svg xmlns="http://www.w3.org/2000/svg" xml:space="preserve" width="6.1135mm" height="5.9164mm" version="1.1" style="shape-rendering:geometricPrecision; text-rendering:geometricPrecision; image-rendering:optimizeQuality; fill-rule:evenodd; clip-rule:evenodd"
viewBox="0 0 49002 47422"
 xmlns:xlink="http://www.w3.org/1999/xlink">
 <defs>
  <style type="text/css">
   <![CDATA[
    .fil0 {fill:#E2016B}
   ]]>
  </style>
 </defs>
 <g id="Слой_x0020_1">
  <metadata id="CorelCorpID_0Corel-Layer"/>
  <g id="_1838033537440">
   <path class="fil0" d="M10 1455l0 10718c4,1734 2135,1218 4426,1234l6976 7c2467,32 1957,-692 1956,-4644 0,-1377 247,-2832 -795,-3059 -1688,-368 -1273,2164 -1276,3144l-3 2422c-863,87 -7724,30 -9161,30l-14 -9172 5719 -5c1059,0 2153,81 2192,-1023 50,-1419 -2055,-1059 -3723,-1069l-4848 -7c-1081,-13 -1449,330 -1449,1424z"/>
   <path class="fil0" d="M2117 19123c1389,-138 6864,334 7558,-272 384,-335 476,-929 173,-1370 -327,-477 -793,-442 -1499,-444 -1275,-4 -2552,2 -3828,1 -4967,-2 -4486,-516 -4507,3215 -16,2579 0,5162 1,7742 0,1580 -272,2407 1528,2396 1304,-8 2610,7 3914,0 1304,-7 2609,3 3913,2 828,-1 3130,167 3613,-229 638,-524 380,-2561 385,-3530 4,-807 174,-3098 -239,-3586 -327,-386 -972,-534 -1456,-149 -716,569 -209,3559 -395,5407l-9187 -23 26 -9160z"/>
   <path class="fil0" d="M2110 36128c1325,-168 6918,284 7559,-265 365,-315 466,-957 189,-1377 -321,-486 -769,-453 -1509,-454 -1276,-2 -2552,2 -3828,1 -5057,-3 -4487,-495 -4508,3319 -15,2578 2,5161 2,7740 -1,2660 -304,2326 5527,2294 1304,-8 2609,7 3913,2 864,-3 3073,177 3566,-260 575,-510 343,-2572 348,-3567 4,-945 225,-3064 -313,-3599 -376,-375 -973,-395 -1386,-58 -778,635 -134,3387 -399,5406l-9180 -20 19 -9162z"/>
   <path class="fil0" d="M18026 5749c-961,327 -1227,2006 698,2015 1418,6 2837,-10 4256,-3 2577,13 24770,104 25306,-56 476,-142 836,-659 679,-1282 -163,-646 -723,-750 -1400,-750 -3459,6 -28976,-116 -29539,76z"/>
   <path class="fil0" d="M17308 40839c154,1276 2100,909 3290,913l25435 0c1208,2 3097,323 2960,-1160 -118,-1291 -2065,-924 -3301,-925l-25434 0c-1151,0 -3129,-314 -2950,1172z"/>
   <path class="fil0" d="M17316 23912c215,1191 2165,839 3367,844l21096 0c1418,1 2836,-3 4254,0 1155,1 3122,345 2959,-1176 -70,-641 -552,-900 -1255,-908l-27479 4c-926,0 -3231,-374 -2942,1236z"/>
   <path class="fil0" d="M6615 23419c-151,-249 -563,-615 -774,-828 -304,-306 -519,-546 -804,-812 -694,-646 -1787,-244 -1806,687 -14,707 1038,1523 1379,1869 1967,1994 1962,2206 3655,514 545,-544 1030,-1030 1575,-1575 1070,-1071 2075,-2076 3146,-3146 455,-454 2993,-2898 3143,-3247 437,-1018 -642,-1863 -1507,-1330 -545,336 -7447,7604 -8007,7868z"/>
   <path class="fil0" d="M11312 45306c-1326,168 -6919,-285 -7559,265 -366,314 -467,956 -189,1376 320,487 768,453 1508,455 1276,1 2552,-3 3828,-2 5057,3 4487,495 4509,-3318 14,-2578 -2,-5162 -2,-7741 0,-2659 303,-2325 -5527,-2293 -1304,7 -2610,-7 -3913,-3 -865,4 -3074,-177 -3566,260 -576,510 -344,2572 -348,3567 -5,946 -225,3064 313,3600 375,374 973,394 1386,57 778,-634 134,-3387 398,-5405l9180 19 -18 9163z"/>
   <path class="fil0" d="M11312 11295c-1326,168 -6919,-285 -7559,265 -366,314 -467,956 -189,1376 320,487 768,453 1508,455 1276,1 2552,-3 3828,-2 5057,3 4487,495 4509,-3318 14,-2578 -2,-5162 -2,-7741 0,-2659 303,-2325 -5527,-2293 -1304,7 -2610,-7 -3913,-3 -865,4 -3074,-177 -3566,260 -576,510 -344,2572 -348,3567 -5,946 -225,3064 313,3600 375,374 973,394 1386,57 778,-634 134,-3387 398,-5405l9180 19 -18 9163z"/>
  </g>
 </g>
</svg>
