<?xml version="1.0" encoding="UTF-8"?>
<!DOCTYPE svg PUBLIC "-//W3C//DTD SVG 1.1//EN" "http://www.w3.org/Graphics/SVG/1.1/DTD/svg11.dtd">
<!-- Creator: CorelDRAW X7 -->
<svg xmlns="http://www.w3.org/2000/svg" xml:space="preserve" width="4.0511mm" height="4.2347mm" version="1.1" style="shape-rendering:geometricPrecision; text-rendering:geometricPrecision; image-rendering:optimizeQuality; fill-rule:evenodd; clip-rule:evenodd"
viewBox="0 0 10658 11141"
 xmlns:xlink="http://www.w3.org/1999/xlink">
 <defs>
  <style type="text/css">
   <![CDATA[
    .str0 {stroke:#E2016B;stroke-width:200.482}
    .fil0 {fill:#E2016B}
   ]]>
  </style>
 </defs>
 <g id="Содержимое_x0020_PowerClip">
  <metadata id="CorelCorpID_0Corel-Layer"/>
  <g id="_1838145230256">
   <path class="fil0 str0" d="M761 810c0,-58 22,-49 78,-49 426,1 3924,-17 4018,10l1 531 653 0 912 0 -1024 -1108c-154,-132 -460,-86 -731,-86l-4029 0c-152,0 -279,-21 -393,59 -99,69 -140,168 -139,310 14,2075 0,4210 0,6292l0 2597c0,194 -39,506 70,645 142,182 491,125 812,125l2474 0 0 -655 -2441 1c-154,0 -261,27 -261,-49l0 -8623z"/>
   <path class="fil0 str0" d="M3700 1707c0,-58 23,-49 78,-49 426,1 3924,-17 4018,10l1 1371c0,540 -96,906 392,906 520,0 1223,-12 1709,2 16,174 6,1042 7,1289 1,606 17,4904 -5,5140l-5939 3c-154,0 -261,27 -261,-49l0 -8623zm4750 492c60,22 38,10 84,63l813 884c50,54 92,74 113,147l-1011 -3 1 -1091zm-5404 -825c14,2075 0,4210 0,6292l0 2597c0,194 -39,506 70,645 142,182 491,125 812,125l6143 0c151,0 264,11 365,-72 102,-84 121,-178 122,-332l0 -6975c1,-222 -150,-318 -253,-434l-1967 -2129c-154,-132 -460,-86 -731,-86l-4029 0c-152,0 -278,-22 -393,59 -99,69 -140,168 -139,310z"/>
  </g>
 </g>
</svg>
