<?xml version="1.0" encoding="UTF-8"?>
<!DOCTYPE svg PUBLIC "-//W3C//DTD SVG 1.1//EN" "http://www.w3.org/Graphics/SVG/1.1/DTD/svg11.dtd">
<!-- Creator: CorelDRAW X7 -->
<svg xmlns="http://www.w3.org/2000/svg" xml:space="preserve" width="3.639mm" height="3.5262mm" version="1.1" style="shape-rendering:geometricPrecision; text-rendering:geometricPrecision; image-rendering:optimizeQuality; fill-rule:evenodd; clip-rule:evenodd"
viewBox="0 0 20354 19723"
 xmlns:xlink="http://www.w3.org/1999/xlink">
 <defs>
  <style type="text/css">
   <![CDATA[
    .str0 {stroke:#E2016B;stroke-width:426.2}
    .fil0 {fill:#E2016B}
   ]]>
  </style>
 </defs>
 <g id="Слой_x0020_1">
  <metadata id="CorelCorpID_0Corel-Layer"/>
  <g id="_1838028707840">
   <path class="fil0 str0" d="M8266 16452l3815 -15c1,315 -55,1246 34,1448 93,156 1196,84 1103,1188l-6090 12c-44,-549 271,-997 762,-1081 463,-80 376,-73 375,-582 0,-323 -1,-646 1,-970zm-7635 -2588c0,-114 47,-98 158,-98l18698 0c329,0 228,-85 228,1389 0,528 -348,877 -891,877l-16500 0c-719,0 -1693,134 -1693,-877l0 -1291zm10 -513c-46,-355 -10,-986 -10,-1371 1,-465 0,-930 0,-1395l0 -8373c-1,-1110 -48,-1594 1170,-1593l13954 0c930,0 1860,1 2790,0 1269,-1 1170,561 1170,1593 -2,1861 -2,3721 0,5582 0,429 28,5273 -10,5567l-19064 -10zm7218 3099l-1 1138c-495,185 -649,203 -908,586 -204,301 -313,832 -201,1244 241,147 1257,73 1645,73 851,0 4911,48 5175,-39 177,-348 21,-986 -156,-1259 -257,-398 -437,-419 -920,-606l-7 -1137c340,-53 3582,-15 4211,-14 697,0 1396,3 2094,1 644,-3 1096,-319 1267,-847 138,-424 62,-3472 61,-4168l0 -8442c3,-1472 266,-2770 -1469,-2767l-16919 0c-1765,-2 -1506,1226 -1503,2732l0 10535c0,464 -53,1728 52,2084 142,482 585,868 1206,872 861,7 6020,-45 6373,14z"/>
   <path class="fil0" d="M9201 15163l2329 0c379,0 609,-437 -188,-437l-2141 0c-436,0 -466,437 0,437z"/>
   <g>
    <path class="fil0 str0" d="M13831 7443c-61,560 -122,937 -384,1448 -414,806 -1065,1409 -1910,1741 -982,385 -2074,323 -3006,-137 -801,-397 -1414,-1086 -1740,-1911 -168,-425 -293,-1043 -247,-1562 53,-584 157,-996 384,-1443 216,-425 493,-779 784,-1041 691,-622 1698,-1033 2690,-947 574,49 1006,160 1442,384 817,420 1408,1071 1741,1910 158,399 300,1059 246,1558zm-3913 -4108c-599,73 -960,131 -1527,433 -464,248 -838,553 -1103,854 -592,672 -1099,1679 -1000,2887 127,1544 1072,2793 2496,3371 1486,604 3274,139 4303,-1033 592,-675 1100,-1676 1001,-2886 -127,-1542 -1073,-2794 -2496,-3372 -427,-174 -1143,-319 -1674,-254z"/>
    <path class="fil0 str0" d="M9932 7274c14,47 1726,1640 1962,1853 91,80 202,46 227,-49 28,-105 -91,-184 -136,-225 -267,-237 -515,-492 -782,-729 -269,-238 -523,-491 -790,-737 -299,-276 -223,-144 -225,-543 -1,-252 0,-505 0,-756 0,-137 28,-670 -27,-742 -61,-79 -199,-63 -228,42 -16,61 -6,295 -6,374 0,252 0,503 0,756 0,114 -14,690 5,756z"/>
   </g>
  </g>
 </g>
</svg>
