<?xml version="1.0" encoding="UTF-8"?>
<!DOCTYPE svg PUBLIC "-//W3C//DTD SVG 1.1//EN" "http://www.w3.org/Graphics/SVG/1.1/DTD/svg11.dtd">
<!-- Creator: CorelDRAW X7 -->
<svg xmlns="http://www.w3.org/2000/svg" xml:space="preserve" width="5.1603mm" height="5.161mm" version="1.1" style="shape-rendering:geometricPrecision; text-rendering:geometricPrecision; image-rendering:optimizeQuality; fill-rule:evenodd; clip-rule:evenodd"
viewBox="0 0 54321 54328"
 xmlns:xlink="http://www.w3.org/1999/xlink">
 <defs>
  <style type="text/css">
   <![CDATA[
    .fil0 {fill:#E2016B}
   ]]>
  </style>
 </defs>
 <g id="Слой_x0020_1">
  <metadata id="CorelCorpID_0Corel-Layer"/>
  <path class="fil0" d="M44011 50202c-293,-451 -598,-1100 -864,-1589l-9430 -17224c-615,-1105 -1345,-1927 -2678,-2157 -2685,-465 -3588,868 -5057,2176 -443,394 -806,762 -1234,1144 -847,760 -1715,1554 -2507,2334 -1710,1683 -3339,3019 -5017,4657 -3236,3163 -3695,2463 -2245,5820 466,1079 954,2221 1450,3387 201,474 720,1287 432,1806 -469,840 -1026,139 -1338,-300 -1330,-1866 -2738,-3819 -4067,-5611 -417,-564 -208,-233 -321,-930 -55,-338 -307,-539 -504,-707 -1243,-1064 -5188,-3808 -6917,-5138 -670,-515 -149,-1319 596,-1186l5053 2152c2481,1074 2512,1038 4677,-1371 1827,-2030 4037,-4271 5794,-6262 764,-866 1559,-1673 2325,-2516 782,-861 1617,-1652 2323,-2512 1489,-1813 1170,-4896 -1622,-6266 -1085,-532 -2135,-1075 -3222,-1612 -4383,-2160 -8627,-4358 -12968,-6480 -541,-264 -1087,-559 -1640,-819 -1216,-571 -597,-1185 -270,-1232 242,-35 21250,4609 23856,5170 1116,240 2956,782 4067,730 2256,-107 3107,-1535 4406,-2865l8174 -8720c821,-748 2650,-863 3927,-467 882,272 1040,322 1356,1096 251,616 379,1285 387,1984 22,1925 -741,2391 -1614,3225 -1691,1617 -3246,3154 -4939,4740 -833,783 -1656,1583 -2481,2359l-2444 2396c-785,1092 -983,2312 -618,3809 317,1296 580,2622 890,3947 1678,7182 3240,14521 4898,21744 165,720 518,1511 -614,1288zm-14918 -16871c853,-753 1152,-1168 1629,-218l8940 16694c347,654 881,1806 1371,2441 1263,1639 3901,1899 5506,737 2270,-1644 1571,-3482 1077,-5547 -490,-2055 -942,-4123 -1405,-6239 -891,-4070 -1899,-8261 -2788,-12366 -455,-2098 -964,-4187 -1406,-6261 -184,-861 -255,-987 295,-1491 2097,-1922 4644,-4489 6809,-6519l3890 -3667c1252,-1322 1574,-3867 1101,-6085 -221,-1036 -605,-1959 -1205,-2636 -519,-587 -1168,-1220 -2195,-1609 -2004,-758 -4541,-776 -6411,88 -1181,545 -2967,2649 -3907,3652l-5600 5862c-2372,2530 -1511,2232 -5029,1498l-22019 -4632c-2580,-551 -4115,-1165 -5755,724 -1386,1596 -1125,4137 339,5433 697,619 1552,990 2391,1436 917,486 1630,865 2490,1325l12483 6619c1455,768 2054,828 2028,1715l-10861 11883c-391,-84 -2492,-1042 -3052,-1288 -808,-355 -2186,-1044 -3007,-1214 -2426,-501 -4638,1276 -4791,3589 -96,1432 488,2503 1163,3153l2419 1829c6240,4610 4393,2682 8558,8499 506,707 1332,1983 1800,2450 2798,2784 7478,59 6680,-3722 -289,-1374 -2267,-4958 -2481,-6009l10943 -10124z"/>
 </g>
</svg>
