<?xml version="1.0" encoding="UTF-8"?>
<!DOCTYPE svg PUBLIC "-//W3C//DTD SVG 1.1//EN" "http://www.w3.org/Graphics/SVG/1.1/DTD/svg11.dtd">
<!-- Creator: CorelDRAW X7 -->
<svg xmlns="http://www.w3.org/2000/svg" xml:space="preserve" width="3.5416mm" height="3.472mm" version="1.1" style="shape-rendering:geometricPrecision; text-rendering:geometricPrecision; image-rendering:optimizeQuality; fill-rule:evenodd; clip-rule:evenodd"
viewBox="0 0 11752 11521"
 xmlns:xlink="http://www.w3.org/1999/xlink">
 <defs>
  <style type="text/css">
   <![CDATA[
    .fil0 {fill:#E2016B}
   ]]>
  </style>
 </defs>
 <g id="Слой_x0020_1">
  <metadata id="CorelCorpID_0Corel-Layer"/>
  <g id="_1838031954368">
   <path class="fil0" d="M3581 10760c-357,-302 -1308,-1570 -1573,-1955 -439,-638 -977,-1483 -1227,-2306 -528,-1736 677,-3990 2800,-3994 2104,-3 3345,2212 2806,4004 -238,795 -802,1686 -1226,2301 -215,311 -1358,1850 -1580,1950zm-3568 -4792c149,1763 2239,4353 3125,5281 468,491 685,279 1212,-338 313,-367 622,-734 938,-1160 829,-1119 2048,-2871 1859,-4436 -191,-1575 -1284,-3053 -2901,-3391 -2377,-498 -4424,1791 -4233,4044z"/>
   <path class="fil0" d="M8900 7003c-183,-121 -736,-913 -867,-986 -170,-95 -358,14 -403,148 -68,207 92,337 173,437 261,321 560,723 867,967 306,244 525,-9 767,-293 660,-778 977,-1132 1563,-2103 288,-478 612,-1102 725,-1721 62,-334 4,-839 -69,-1136 -71,-290 -205,-622 -355,-859 -1219,-1931 -3478,-1878 -4669,-223 -159,221 -334,545 -414,820 -110,377 412,587 558,131 371,-1151 1689,-2072 3093,-1391 521,252 929,727 1143,1308 271,734 210,1342 -93,2016 -249,557 -571,1055 -914,1537 -165,232 -940,1256 -1105,1348z"/>
   <path class="fil0" d="M4636 5904c-233,1352 -2383,1068 -2094,-461 248,-1318 2354,-1051 2094,461zm-1236 -1941c-975,161 -1629,1016 -1521,1913 99,815 914,1658 1881,1535 852,-107 1643,-924 1534,-1913 -91,-819 -944,-1692 -1894,-1535z"/>
   <path class="fil0" d="M8760 2232c1104,-216 1322,1480 293,1629 -884,127 -1185,-799 -808,-1333 117,-166 253,-244 515,-296zm1509 1008c126,-782 -503,-1457 -1155,-1575 -794,-142 -1461,519 -1575,1167 -144,811 515,1480 1164,1594 782,138 1460,-520 1566,-1186z"/>
  </g>
 </g>
</svg>
