<?xml version="1.0" encoding="UTF-8"?>
<!DOCTYPE svg PUBLIC "-//W3C//DTD SVG 1.1//EN" "http://www.w3.org/Graphics/SVG/1.1/DTD/svg11.dtd">
<!-- Creator: CorelDRAW X7 -->
<svg xmlns="http://www.w3.org/2000/svg" xml:space="preserve" width="3.641mm" height="3.5236mm" version="1.1" style="shape-rendering:geometricPrecision; text-rendering:geometricPrecision; image-rendering:optimizeQuality; fill-rule:evenodd; clip-rule:evenodd"
viewBox="0 0 21164 20482"
 xmlns:xlink="http://www.w3.org/1999/xlink">
 <defs>
  <style type="text/css">
   <![CDATA[
    .fil0 {fill:#E2016B}
   ]]>
  </style>
 </defs>
 <g id="Слой_x0020_1">
  <metadata id="CorelCorpID_0Corel-Layer"/>
  <g id="_1838027978400">
   <path class="fil0" d="M5 628l0 4630c1,748 921,526 1911,533l3013 3c1066,14 845,-299 845,-2006 0,-595 106,-1223 -344,-1322 -729,-158 -550,936 -551,1359l-1 1046c-372,37 -3336,12 -3957,12l-5 -3961 2469 -2c458,0 930,35 947,-442 21,-612 -888,-457 -1608,-462l-2094 -3c-467,-5 -625,143 -625,615z"/>
   <path class="fil0" d="M914 8259c600,-59 2965,144 3264,-117 167,-145 206,-402 75,-592 -141,-206 -342,-191 -647,-192 -551,-1 -1102,2 -1653,1 -2146,-1 -1938,-223 -1947,1389 -7,1113 0,2229 0,3343 0,683 -117,1040 660,1035 563,-3 1127,3 1691,0 563,-3 1127,2 1690,1 357,0 1352,72 1561,-99 275,-226 164,-1106 166,-1525 2,-348 75,-1338 -104,-1548 -141,-167 -419,-231 -629,-64 -309,245 -90,1536 -170,2335l-3968 -10 11 -3957z"/>
   <path class="fil0" d="M911 15604c572,-73 2988,123 3265,-115 157,-135 201,-413 81,-594 -138,-210 -332,-196 -651,-196 -551,-1 -1102,1 -1653,0 -2184,-1 -1938,-213 -1948,1433 -6,1114 1,2230 1,3344 0,1148 -131,1004 2388,990 562,-3 1126,3 1690,2 373,-2 1327,76 1540,-113 248,-221 148,-1111 150,-1541 2,-408 98,-1323 -135,-1555 -163,-161 -420,-170 -599,-24 -336,274 -58,1463 -172,2334l-3965 -8 8 -3957z"/>
   <path class="fil0" d="M7785 2483c-415,141 -529,866 302,870 612,3 1226,-4 1838,-1 1113,5 10699,44 10930,-24 205,-61 361,-285 293,-554 -70,-279 -312,-324 -605,-323 -1494,1 -12515,-51 -12758,32z"/>
   <path class="fil0" d="M7475 17638c67,551 907,393 1422,395l10985 0c522,1 1338,139 1278,-501 -51,-558 -892,-399 -1425,-399l-10986 0c-497,0 -1351,-136 -1274,505z"/>
   <path class="fil0" d="M7479 10328c93,514 935,362 1454,364l9112 0c612,1 1224,-1 1837,0 499,1 1349,149 1278,-508 -30,-277 -238,-388 -542,-392l-11869 2c-399,0 -1395,-162 -1270,534z"/>
   <path class="fil0" d="M2857 10115c-65,-108 -244,-266 -334,-358 -132,-132 -225,-236 -348,-351 -299,-278 -771,-105 -779,297 -7,306 448,658 595,807 849,862 847,953 1579,223 235,-236 445,-445 680,-680 462,-463 896,-897 1359,-1359 196,-197 1292,-1252 1357,-1403 189,-439 -277,-805 -651,-575 -235,145 -3216,3284 -3458,3399z"/>
   <path class="fil0" d="M4886 19568c-573,72 -2989,-123 -3265,114 -158,136 -202,414 -82,595 139,210 332,195 652,196 551,1 1102,-1 1653,-1 2184,2 1938,214 1947,-1433 7,-1113 -1,-2229 -1,-3343 0,-1149 132,-1004 -2387,-991 -563,3 -1127,-3 -1690,-1 -373,2 -1328,-76 -1540,113 -249,220 -149,1111 -150,1540 -2,409 -98,1324 135,1555 162,162 420,171 598,25 336,-274 58,-1463 172,-2335l3965 8 -7 3958z"/>
   <path class="fil0" d="M4886 4878c-573,73 -2989,-123 -3265,115 -158,135 -202,413 -82,594 139,210 332,196 652,196 551,1 1102,-1 1653,0 2184,1 1938,214 1947,-1433 7,-1114 -1,-2229 -1,-3344 0,-1148 132,-1004 -2387,-990 -563,3 -1127,-3 -1690,-1 -373,1 -1328,-77 -1540,112 -249,221 -149,1111 -150,1541 -2,408 -98,1323 135,1555 162,161 420,170 598,24 336,-274 58,-1462 172,-2334l3965 8 -7 3957z"/>
  </g>
 </g>
</svg>
