<?xml version="1.0" encoding="UTF-8"?>
<!DOCTYPE svg PUBLIC "-//W3C//DTD SVG 1.1//EN" "http://www.w3.org/Graphics/SVG/1.1/DTD/svg11.dtd">
<!-- Creator: CorelDRAW X7 -->
<svg xmlns="http://www.w3.org/2000/svg" xml:space="preserve" width="5.4261mm" height="5.0752mm" version="1.1" style="shape-rendering:geometricPrecision; text-rendering:geometricPrecision; image-rendering:optimizeQuality; fill-rule:evenodd; clip-rule:evenodd"
viewBox="0 0 25231 23600"
 xmlns:xlink="http://www.w3.org/1999/xlink">
 <defs>
  <style type="text/css">
   <![CDATA[
    .fil0 {fill:#E2016B}
   ]]>
  </style>
 </defs>
 <g id="Слой_x0020_1">
  <metadata id="CorelCorpID_0Corel-Layer"/>
  <path class="fil0" d="M10030 22089c-88,-2145 7,-4591 -10,-6806 -4,-590 106,-650 417,-923 1127,-991 2790,-975 3894,56 338,315 359,353 355,988 -15,2179 76,4578 -9,6695l-4647 -10zm-6941 -13518c788,-520 1659,-1188 2411,-1732 867,-628 1579,-1137 2372,-1709 743,-535 1616,-1158 2414,-1731l2396 -1688c332,131 7418,5373 8291,6004 378,272 802,612 1148,824 76,3756 5,8306 5,12149 0,1007 -422,1422 -1456,1422 -1265,0 -3307,44 -4481,-10 -90,-544 -26,-5848 -24,-6876 1,-762 36,-872 -369,-1372 -1859,-2293 -5127,-2277 -6937,71 -401,519 -315,618 -314,1361 0,1013 66,6285 -26,6822l-4004 4c-993,0 -1437,-423 -1437,-1422l11 -12117zm2781 -7072l1146 5c79,320 54,1972 25,2371 -115,139 -929,776 -1200,841l29 -3217zm-4277 8175c67,618 15,5132 15,6150 0,1362 -192,5101 228,6030 923,2037 2807,1724 4481,1724l12431 0c1748,0 3639,333 4593,-1655 377,-784 262,-1871 262,-2856 0,-2797 -110,-6854 8,-9369 356,104 826,745 1383,183 552,-557 13,-1042 -329,-1293l-9064 -6612c-410,-294 -680,-511 -1108,-812 -1485,-1046 -1584,-1476 -2466,-825 -488,360 -3291,2395 -3484,2453 -42,-698 206,-2212 -287,-2599 -373,-295 -2129,-162 -2781,-166 -1316,-7 -1114,620 -1114,1807l6 3667c1,331 -15,356 -237,511 -308,215 -547,390 -875,626l-2551 1833c-284,205 -662,391 -700,813 -41,455 280,764 627,811 441,60 694,-310 962,-421z"/>
 </g>
</svg>
