<?xml version="1.0" encoding="UTF-8"?>
<!DOCTYPE svg PUBLIC "-//W3C//DTD SVG 1.1//EN" "http://www.w3.org/Graphics/SVG/1.1/DTD/svg11.dtd">
<!-- Creator: CorelDRAW X7 -->
<svg xmlns="http://www.w3.org/2000/svg" xml:space="preserve" width="5.1603mm" height="5.1654mm" version="1.1" style="shape-rendering:geometricPrecision; text-rendering:geometricPrecision; image-rendering:optimizeQuality; fill-rule:evenodd; clip-rule:evenodd"
viewBox="0 0 43450 43493"
 xmlns:xlink="http://www.w3.org/1999/xlink">
 <defs>
  <style type="text/css">
   <![CDATA[
    .fil0 {fill:#E2016B}
   ]]>
  </style>
 </defs>
 <g id="Слой_x0020_1">
  <metadata id="CorelCorpID_0Corel-Layer"/>
  <g id="_1838367840256">
   <path class="fil0" d="M25192 36804c49,-841 273,-1861 400,-2700 411,-2713 567,-5232 2006,-7254 785,-1104 1953,-2040 3608,-2581 941,-306 4743,-488 5780,-294 55,1170 -932,3771 -1373,4708 -1263,2682 -3382,4864 -5950,6419 -907,549 -3281,1612 -4471,1702zm-18698 -13049c1922,-21 4058,-158 5752,389 1688,546 2821,1488 3627,2557 1387,1840 1646,4620 2005,7181 125,900 341,1815 404,2718 -1268,-103 -3524,-1147 -4445,-1682 -1113,-646 -2606,-1782 -3443,-2739 -931,-1064 -1688,-2035 -2485,-3619 -510,-1014 -1434,-3483 -1415,-4805zm9843 -1411c-740,-7330 10108,-8266 10800,-1176 715,7316 -10093,8194 -10800,1176zm-9384 -4679c53,-1044 1434,-3627 1979,-4433 5156,-7640 15685,-8822 22408,-3582 1241,969 2241,1995 3146,3336 637,944 1921,3274 2038,4475 -535,-146 -1086,-421 -1592,-625 -1502,-604 -3573,-1227 -5152,-1623 -7247,-1821 -14424,-975 -21229,1786 -529,214 -1060,491 -1598,666zm9319 -864c-414,310 -1234,1702 -1521,2477 -505,1367 -477,2111 -370,3635 -691,-201 -1097,-596 -2532,-931 -1100,-257 -5461,-487 -6341,34 -745,441 -1171,1152 -980,2397 594,3886 2512,6986 4584,9199 1763,1884 5136,4308 8724,4983 1078,202 1835,-464 2228,-1118 463,-768 124,-1941 -48,-2922 -172,-979 -311,-2047 -466,-3025l-500 -2891c683,315 1713,526 2612,535 1296,14 1754,-270 2821,-529l-532 2934c-167,1004 -301,2010 -470,2985 -145,833 -490,2257 -159,3008 312,711 1027,1433 2168,1252 3128,-496 6774,-2769 8819,-4964 2112,-2268 3972,-5167 4624,-9184 521,-3216 -2639,-2735 -4079,-2734 -1836,1 -2911,-62 -4627,603 -376,146 -839,414 -1147,515 -18,-1408 322,-1888 -336,-3727 -552,-1543 -1412,-2237 -1566,-2624 1317,114 3390,757 4618,1147 1786,566 2708,1042 4219,1594 1024,373 3118,-463 2411,-2780 -2020,-6621 -8407,-12277 -16840,-12211 -8237,64 -14653,5933 -16561,12486 -283,971 -209,1538 379,2132 450,454 1249,898 2090,558 1387,-560 2690,-1154 4160,-1647 763,-256 3907,-1235 4618,-1187z"/>
   <path class="fil0" d="M20089 2115c5872,-679 11605,1978 14733,4805 3091,2793 6010,6980 6550,13090 543,6163 -1843,11503 -4814,14816 -2852,3179 -6964,5968 -13150,6542 -6120,569 -11498,-1885 -14756,-4807 -8180,-7336 -8836,-20002 -1736,-27906 3543,-3944 7527,-5887 13173,-6540zm-481 -1974c-654,156 -1665,225 -2348,368 -751,156 -1460,357 -2162,581 -1317,422 -2598,1004 -3764,1652 -2532,1407 -4404,3061 -5989,4868 -3136,3576 -6008,9645 -5210,16307 798,6670 3962,11114 7471,14215 3428,3031 9742,6075 16271,5212 5997,-793 10520,-3209 14252,-7473 3195,-3651 5903,-9497 5212,-16283 -667,-6554 -4118,-11290 -7474,-14239 -2838,-2495 -7051,-4615 -11189,-5111 -1275,-152 -3835,-393 -5070,-97z"/>
   <path class="fil0" d="M23503 22193c-435,2130 -4055,1769 -3529,-934 404,-2070 4076,-1738 3529,934zm-2573 -4150c-1705,464 -3497,2274 -2901,4546 441,1675 2347,3437 4556,2859 1678,-438 3428,-2341 2860,-4555 -422,-1642 -2334,-3443 -4515,-2850z"/>
  </g>
 </g>
</svg>
