<?xml version="1.0" encoding="UTF-8"?>
<!DOCTYPE svg PUBLIC "-//W3C//DTD SVG 1.1//EN" "http://www.w3.org/Graphics/SVG/1.1/DTD/svg11.dtd">
<!-- Creator: CorelDRAW X7 -->
<svg xmlns="http://www.w3.org/2000/svg" xml:space="preserve" width="4.9943mm" height="6.4318mm" version="1.1" style="shape-rendering:geometricPrecision; text-rendering:geometricPrecision; image-rendering:optimizeQuality; fill-rule:evenodd; clip-rule:evenodd"
viewBox="0 0 528074 680068"
 xmlns:xlink="http://www.w3.org/1999/xlink">
 <defs>
  <style type="text/css">
   <![CDATA[
    .str0 {stroke:#E2016B;stroke-width:8057.03}
    .fil0 {fill:#E2016B}
   ]]>
  </style>
 </defs>
 <g id="Слой_x0020_1">
  <metadata id="CorelCorpID_0Corel-Layer"/>
  <g id="_1838145282480">
   <path class="fil0 str0" d="M348377 25334l63 113518c53,14168 1110,21274 9484,29426 8036,7814 15438,8617 29405,8480l115759 -43c1449,12498 85,215700 328,237894 434,39535 85,79397 43,118963l-75 89759c-348,39026 6968,31139 -58735,31741 -98874,910 -198857,-909 -297391,0 -15322,138 -112788,2242 -118519,-1913 -5953,-4314 -4103,-16992 -4092,-25504 10,-10087 -64,-20206 0,-30282l0 -178439c-455,-79587 920,-159449 42,-238994 -106,-10594 -846,-143324 465,-147923 2676,-9347 14317,-7095 23696,-7106 31699,-31 285887,-1395 299527,423zm139285 130594c-15924,2104 -42104,243 -59233,412 -70547,677 -59519,9918 -59571,-57509 -22,-19329 -402,-39196 74,-58472 4853,1502 56166,53576 60290,57689l58440 57880zm-482936 494439c4811,28316 33117,25207 49527,25133l222773 0c20492,0 212655,1639 223377,-793 9548,-2167 16822,-8723 20417,-16378 4494,-9569 2993,-22659 2929,-33920 -581,-99095 571,-198296 0,-297391 -285,-49611 -381,-99645 11,-149245 42,-6323 1194,-13767 -2073,-17584l-65080 -63589c-12085,-11483 -25905,-26043 -37483,-37124 -12709,-12149 -23991,-22564 -37747,-36859 -4061,-4219 -15205,-17066 -20027,-17975l-110282 -159c-20227,64 -213500,-1470 -223376,783 -9865,2262 -16833,9103 -20365,16367 -4356,8946 -2992,22776 -2981,33941l-64 446637c-10,10690 -782,140934 444,148156z"/>
   <path class="fil0 str0" d="M230217 155029c3352,-1258 44917,-952 48163,53 4250,14158 -5118,36976 6281,48046 12867,12498 46671,-1427 48828,8121l381 38699c-138,3542 465,2907 -1417,4863 -6556,4526 -37018,-4737 -48078,6175 -10859,10722 -1797,35348 -6037,48258 -3881,1174 -45805,1385 -47698,-201 -2918,-2485 -1469,-27988 -1438,-31615 74,-10573 -4007,-17880 -12762,-20777 -5392,-1776 -24858,-1004 -31995,-994 -12128,21 -10172,3786 -10193,-23029 -21,-25672 -2020,-24478 8459,-24255 6587,137 27829,729 32957,-698 23473,-6567 8258,-42189 14549,-52646zm-18387 117250c4272,7317 -2379,33941 3468,44197 7232,12678 21052,9516 38128,9527 16231,11 31647,3119 39027,-8681 6365,-10172 222,-32577 3447,-44800 5033,-1829 26793,-603 34280,-698 26306,-296 19698,-27671 19899,-51271 116,-13354 -539,-21179 -10024,-26201 -6957,-3690 -24012,-2368 -33180,-2252 -1628,21 -7475,264 -8670,42 -3806,-719 -2971,-1438 -2950,-5995 201,-45678 2844,-48490 -40972,-47972 -29173,338 -41512,-4219 -41353,28929 137,29712 1713,25038 -10362,24964 -8935,-42 -27449,-1332 -34206,2115 -9252,4705 -10531,12434 -10383,24647 138,11229 -814,25239 127,36055 2294,26572 39482,13112 53724,17394z"/>
   <polygon class="fil0 str0" points="91102,389381 436518,389465 436803,368783 91768,368783 "/>
   <polygon class="fil0 str0" points="91302,458881 436898,458606 436655,438558 91112,438727 "/>
   <polygon class="fil0 str0" points="91281,528285 311295,528148 310851,507899 91239,508069 "/>
   <g>
    <path class="fil0 str0" d="M397184 559340c3479,0 6524,-444 9114,-1312 2591,-877 4758,-2125 6482,-3753 1702,-1628 2992,-3606 3828,-5921 856,-2348 1268,-4938 1268,-7804 0,-2738 -412,-5212 -1268,-7422 -836,-2221 -2126,-4103 -3817,-5646 -1692,-1555 -3828,-2760 -6419,-3585 -2590,-825 -5656,-1226 -9188,-1226l-14211 0 0 36669 14211 0zm0 -51377c6820,0 12731,803 17732,2411 4990,1596 9114,3838 12360,6714 3257,2865 5678,6312 7254,10320 1586,4007 2368,8384 2368,13142 0,4938 -835,9464 -2474,13598 -1660,4113 -4124,7676 -7423,10637 -3299,2971 -7422,5276 -12392,6915 -4969,1660 -10795,2485 -17425,2485l-14211 0 0 42950 -19000 0 0 -109172 33211 0z"/>
    <rect class="fil0 str0" transform="matrix(4.45712E-014 1.26296 -1.68292 3.34488E-014 396286 583189)" width="15046" height="27100"/>
   </g>
  </g>
 </g>
</svg>
