<?xml version="1.0" encoding="UTF-8"?>
<!DOCTYPE svg PUBLIC "-//W3C//DTD SVG 1.1//EN" "http://www.w3.org/Graphics/SVG/1.1/DTD/svg11.dtd">
<!-- Creator: CorelDRAW X7 -->
<svg xmlns="http://www.w3.org/2000/svg" xml:space="preserve" width="3.9752mm" height="3.9788mm" version="1.1" style="shape-rendering:geometricPrecision; text-rendering:geometricPrecision; image-rendering:optimizeQuality; fill-rule:evenodd; clip-rule:evenodd"
viewBox="0 0 10268 10277"
 xmlns:xlink="http://www.w3.org/1999/xlink">
 <defs>
  <style type="text/css">
   <![CDATA[
    .fil0 {fill:#E2016B}
   ]]>
  </style>
 </defs>
 <g id="Содержимое_x0020_PowerClip">
  <metadata id="CorelCorpID_0Corel-Layer"/>
  <g id="_1838033451456">
   <path class="fil0" d="M952 5540c-152,-1282 425,-2502 1021,-3165 602,-670 1469,-1284 2768,-1421 2260,-238 4363,1475 4580,3785 123,1302 -381,2451 -1020,3163 -605,672 -1471,1283 -2769,1420 -1290,137 -2468,-400 -3159,-1020 -694,-622 -1267,-1461 -1421,-2762zm3781 -5517c-1100,129 -1873,385 -2763,1073 -195,152 -524,448 -668,627 -442,551 -692,863 -966,1584 -534,1412 -419,2893 257,4225 572,1128 1564,1945 2718,2407 1661,665 3605,316 4992,-759 195,-151 523,-446 668,-627 97,-121 192,-223 287,-352 97,-129 180,-255 259,-379 555,-867 819,-2017 736,-3086 -83,-1064 -464,-1975 -1075,-2764 -92,-119 -205,-259 -293,-344 -112,-109 -216,-230 -333,-324 -586,-470 -824,-664 -1587,-966 -588,-233 -1504,-401 -2232,-315z"/>
   <path class="fil0" d="M4553 5120l0 2025c0,268 -1,426 148,599 240,278 760,286 969,-156 86,-182 51,-1050 51,-1355l0 -912c-1,-305 26,-785 -482,-873 -221,-38 -396,51 -508,157 -140,132 -178,284 -178,515z"/>
   <path class="fil0" d="M4971 2359c-336,81 -617,429 -514,852 78,319 422,607 843,508 884,-208 584,-1580 -329,-1360z"/>
  </g>
 </g>
</svg>
