<?xml version="1.0" encoding="UTF-8"?>
<!DOCTYPE svg PUBLIC "-//W3C//DTD SVG 1.1//EN" "http://www.w3.org/Graphics/SVG/1.1/DTD/svg11.dtd">
<!-- Creator: CorelDRAW X7 -->
<svg xmlns="http://www.w3.org/2000/svg" xml:space="preserve" width="4.4005mm" height="4.4016mm" version="1.1" style="shape-rendering:geometricPrecision; text-rendering:geometricPrecision; image-rendering:optimizeQuality; fill-rule:evenodd; clip-rule:evenodd"
viewBox="0 0 12578 12582"
 xmlns:xlink="http://www.w3.org/1999/xlink">
 <defs>
  <style type="text/css">
   <![CDATA[
    .str0 {stroke:#E2016B;stroke-width:483.928}
    .fil0 {fill:#E2016B}
   ]]>
  </style>
 </defs>
 <g id="Содержимое_x0020_PowerClip">
  <metadata id="CorelCorpID_0Corel-Layer"/>
  <g id="_1838145253808">
   <path class="fil0 str0" d="M2034 2678c420,-98 691,193 863,368 207,211 405,408 616,615 162,160 473,421 553,699 189,656 -538,995 -623,1204 -47,117 6,186 57,249 1016,1233 2012,2207 3246,3249 186,158 258,108 411,-49 101,-104 203,-208 313,-312 226,-215 621,-298 934,-107 214,130 470,431 647,605 468,458 1105,916 783,1543 -103,202 -446,503 -588,644 -186,186 -377,412 -732,518 -372,110 -742,39 -1016,-121 -298,-174 -1166,-802 -1453,-1031 -1946,-1553 -3366,-2983 -4850,-5077 -353,-496 -809,-1057 -445,-1798 139,-283 406,-506 575,-675 172,-172 378,-447 709,-524zm1882 2977c69,-103 189,-189 284,-304 296,-355 348,-912 152,-1320 -142,-297 -821,-936 -1088,-1190 -216,-206 -335,-378 -663,-488 -314,-105 -666,-82 -949,48 -257,118 -452,350 -615,513 -178,179 -375,345 -534,597 -331,525 -353,1247 -35,1804 158,277 722,1058 932,1326 711,906 1365,1670 2117,2422 1077,1077 1860,1693 3099,2612 181,135 465,336 675,452 560,310 1260,273 1790,-57 243,-151 435,-378 604,-548 166,-165 391,-351 506,-622 122,-287 140,-644 26,-951 -119,-316 -277,-425 -487,-643 -194,-201 -377,-374 -575,-575 -182,-186 -363,-391 -618,-511 -280,-130 -654,-148 -959,-37 -390,141 -426,320 -653,481 -282,-76 -2932,-2736 -3009,-3009z"/>
   <path class="fil0 str0" d="M6206 271c-213,104 -167,375 133,383 718,20 1331,116 1984,372 2120,831 3458,2701 3599,4997 7,114 -16,265 26,361 34,78 143,155 265,99 179,-81 116,-415 100,-625 -208,-2631 -2107,-4873 -4708,-5460 -234,-52 -1200,-224 -1399,-127z"/>
   <path class="fil0 str0" d="M6191 2315c-194,125 -98,286 -31,333 104,71 329,40 474,55 1683,172 2995,1415 3224,3082 23,173 -35,894 332,693 308,-169 -93,-1433 -199,-1692 -474,-1166 -1584,-2140 -2853,-2408 -183,-38 -802,-156 -947,-63z"/>
   <path class="fil0 str0" d="M6079 4546c21,185 188,171 358,184 441,35 822,252 1074,561 499,613 222,1063 449,1185 585,316 372,-1590 -1100,-2065 -210,-68 -822,-223 -781,135z"/>
  </g>
 </g>
</svg>
