<?xml version="1.0" encoding="UTF-8"?>
<!DOCTYPE svg PUBLIC "-//W3C//DTD SVG 1.1//EN" "http://www.w3.org/Graphics/SVG/1.1/DTD/svg11.dtd">
<!-- Creator: CorelDRAW X7 -->
<svg xmlns="http://www.w3.org/2000/svg" xml:space="preserve" width="4.7573mm" height="3.9068mm" version="1.1" style="shape-rendering:geometricPrecision; text-rendering:geometricPrecision; image-rendering:optimizeQuality; fill-rule:evenodd; clip-rule:evenodd"
viewBox="0 0 14624 12010"
 xmlns:xlink="http://www.w3.org/1999/xlink">
 <defs>
  <style type="text/css">
   <![CDATA[
    .str0 {stroke:#E2016B;stroke-width:234.244}
    .fil0 {fill:#E2016B}
   ]]>
  </style>
 </defs>
 <g id="Содержимое_x0020_PowerClip">
  <metadata id="CorelCorpID_0Corel-Layer"/>
  <g id="_1838027983552">
   <path class="fil0 str0" d="M11896 4558c31,591 3,422 3,1101 0,290 27,5140 -17,5290 -121,415 -681,335 -993,336 -449,1 -899,1 -1349,0 -1767,-4 -3538,-9 -5305,0 -612,2 -1471,158 -1477,-499 -23,-2405 2,-3358 1,-5779 -1,-340 -46,-407 104,-539 784,-691 1716,-1496 2463,-2191 222,-207 475,-437 713,-636l702 -625c689,-657 997,-114 1626,422 687,587 1436,1301 2110,1869 354,298 1145,1041 1419,1251zm-9769 550c18,2249 -2,2954 0,5205 1,619 -10,990 378,1302 404,325 800,272 1415,272l6745 0c577,0 1014,66 1419,-267 410,-337 386,-666 385,-1307 -5,-2246 -34,-2970 1,-5213 75,19 1167,1004 1407,1214 93,81 175,209 358,179 117,-18 245,-128 267,-254 33,-186 -91,-278 -178,-349 -399,-324 -740,-672 -1124,-990 -399,-332 -748,-677 -1135,-1000 -729,-609 -1507,-1349 -2247,-1980 -378,-323 -757,-661 -1123,-990 -421,-377 -790,-800 -1335,-813 -342,-8 -585,92 -801,267 -506,412 -1158,1032 -1686,1484 -768,657 -1475,1307 -2260,1990 -783,681 -1468,1308 -2258,1990 -84,73 -212,145 -232,285 -29,199 49,300 190,347 180,60 267,-35 368,-125 206,-185 1334,-1210 1446,-1247z"/>
   <path class="fil0 str0" d="M4925 6497c2135,0 1908,197 1909,-982 0,-295 -17,-640 3,-936l982 5c48,468 -84,1655 84,1827 204,209 1425,1 1808,100 8,196 2,402 2,600 0,427 48,380 -217,377 -404,-6 -810,1 -1214,-1 -226,-1 -376,-18 -458,159 -69,152 -4,1388 -35,1760l-981 -11c-15,-301 -3,-631 -3,-935 0,-1051 120,-975 -929,-973 -314,1 -628,0 -942,0 -31,-132 -22,-828 -9,-990zm1309 -606c-418,43 -1063,6 -1505,5 -296,-1 -408,58 -412,360 -3,246 1,496 1,742 1,828 -120,1090 434,1087 453,-1 1036,-31 1474,4 54,274 9,1177 10,1517 0,288 72,395 358,397 247,2 496,0 743,1 828,1 1086,112 1085,-420 0,-255 0,-510 0,-765 -1,-196 -20,-550 7,-728 393,-47 1070,-4 1494,-6 500,-1 390,-322 388,-1109 -1,-852 117,-1081 -433,-1080 -439,1 -1065,37 -1482,-5 -21,-486 -1,-1010 -2,-1501 -1,-270 -46,-405 -336,-411 -246,-5 -497,1 -743,0 -822,-1 -1082,-117 -1080,434 2,481 19,1000 -1,1478z"/>
  </g>
 </g>
</svg>
